<svg xmlns="http://www.w3.org/2000/svg" width="464.0" height="340">
<path stroke-width="0.5" stroke="gray" d="M 261 218 263 310"/>
<path stroke-width="0.5" stroke="gray" d="M 150 260 227 320"/>
<path stroke-width="20.0" stroke="gray" d="M 420 164 354 85"/>
<path stroke-width="0.5" stroke="gray" d="M 420 164 404 227"/>
<path stroke-width="0.5" stroke="gray" d="M 176 100 101 144"/>
<path stroke-width="0.5" stroke="gray" d="M 176 100 135 85"/>
<path stroke-width="0.5" stroke="gray" d="M 176 100 354 85"/>
<path stroke-width="0.5" stroke="gray" d="M 143 140 261 218"/>
<path stroke-width="0.5" stroke="gray" d="M 143 140 166 63"/>
<path stroke-width="20.0" stroke="gray" d="M 143 140 49 197"/>
<path stroke-width="0.5" stroke="gray" d="M 286 301 324 268"/>
<path stroke-width="0.5" stroke="gray" d="M 286 301 383 271"/>
<path stroke-width="0.5" stroke="gray" d="M 286 301 165 310"/>
<path stroke-width="0.5" stroke="gray" d="M 242 110 261 218"/>
<path stroke-width="0.5" stroke="gray" d="M 242 110 227 105"/>
<path stroke-width="20.0" stroke="gray" d="M 242 110 237 45"/>
<path stroke-width="0.5" stroke="gray" d="M 190 232 119 231"/>
<path stroke-width="0.5" stroke="gray" d="M 190 232 120 262"/>
<path stroke-width="0.5" stroke="gray" d="M 190 232 355 204"/>
<path stroke-width="20.0" stroke="gray" d="M 330 113 334 135"/>
<path stroke-width="0.5" stroke="gray" d="M 330 113 258 33"/>
<path stroke-width="0.5" stroke="gray" d="M 330 113 324 218"/>
<path stroke-width="0.5" stroke="gray" d="M 258 33 168 40"/>
<path stroke-width="0.5" stroke="gray" d="M 258 33 330 113"/>
<path stroke-width="0.5" stroke="gray" d="M 258 33 237 45"/>
<path stroke-width="0.5" stroke="gray" d="M 258 33 259 20"/>
<path stroke-width="0.5" stroke="gray" d="M 258 33 302 34"/>
<path stroke-width="0.5" stroke="gray" d="M 237 45 168 40"/>
<path stroke-width="0.5" stroke="gray" d="M 150 260 165 310"/>
<path stroke-width="0.5" stroke="gray" d="M 150 260 119 231"/>
<path stroke-width="0.5" stroke="gray" d="M 150 260 101 144"/>
<path stroke-width="0.5" stroke="gray" d="M 384 198 334 135"/>
<path stroke-width="0.5" stroke="gray" d="M 20 207 42 216"/>
<path stroke-width="0.5" stroke="gray" d="M 104 108 135 85"/>
<path stroke-width="0.5" stroke="gray" d="M 303 204 276 96"/>
<path stroke-width="0.5" stroke="gray" d="M 303 204 273 302"/>
<path stroke-width="0.5" stroke="gray" d="M 194 300 261 218"/>
<path stroke-width="20.0" stroke="gray" d="M 194 300 263 310"/>
<path stroke-width="20.0" stroke="gray" d="M 194 300 85 216"/>
<path stroke-width="20.0" stroke="gray" d="M 194 300 107 311"/>
<path stroke-width="0.5" stroke="gray" d="M 194 300 273 302"/>
<path stroke-width="0.5" stroke="gray" d="M 418 254 383 271"/>
<path stroke-width="0.5" stroke="gray" d="M 30 128 42 89"/>
<path stroke-width="0.5" stroke="gray" d="M 30 128 25 204"/>
<path stroke-width="20.0" stroke="gray" d="M 30 128 71 95"/>
<path stroke-width="20.0" stroke="gray" d="M 237 45 256 62"/>
<path stroke-width="20.0" stroke="gray" d="M 264 173 227 105"/>
<path stroke-width="0.5" stroke="gray" d="M 404 227 356 301"/>
<path stroke-width="0.5" stroke="gray" d="M 404 227 420 164"/>
<path stroke-width="0.5" stroke="gray" d="M 404 227 355 204"/>
<path stroke-width="0.5" stroke="gray" d="M 381 163 261 218"/>
<path stroke-width="20.0" stroke="gray" d="M 381 163 402 98"/>
<path stroke-width="0.5" stroke="gray" d="M 381 163 355 204"/>
<path stroke-width="20.0" stroke="gray" d="M 227 320 308 303"/>
<path stroke-width="0.5" stroke="gray" d="M 227 320 150 260"/>
<path stroke-width="0.5" stroke="gray" d="M 367 288 324 268"/>
<path stroke-width="0.5" stroke="gray" d="M 367 288 383 271"/>
<path stroke-width="20.0" stroke="gray" d="M 367 288 325 289"/>
<path stroke-width="20.0" stroke="gray" d="M 384 198 383 271"/>
<path stroke-width="0.5" stroke="gray" d="M 384 198 341 165"/>
<path stroke-width="0.5" stroke="gray" d="M 264 173 324 268"/>
<path stroke-width="20.0" stroke="gray" d="M 237 45 242 110"/>
<path stroke-width="0.5" stroke="gray" d="M 237 45 258 33"/>
<path stroke-width="0.5" stroke="gray" d="M 237 45 288 154"/>
<path stroke-width="0.5" stroke="gray" d="M 103 295 83 286"/>
<path stroke-width="0.5" stroke="gray" d="M 363 67 402 98"/>
<path stroke-width="0.5" stroke="gray" d="M 363 67 354 85"/>
<path stroke-width="0.5" stroke="gray" d="M 363 67 275 60"/>
<path stroke-width="20.0" stroke="gray" d="M 286 168 232 167"/>
<path stroke-width="0.5" stroke="gray" d="M 286 168 341 165"/>
<path stroke-width="0.5" stroke="gray" d="M 286 168 334 135"/>
<path stroke-width="0.5" stroke="gray" d="M 24 128 42 89"/>
<path stroke-width="20.0" stroke="gray" d="M 24 128 49 197"/>
<path stroke-width="0.5" stroke="gray" d="M 191 60 135 85"/>
<path stroke-width="0.5" stroke="gray" d="M 191 60 275 60"/>
<path stroke-width="0.5" stroke="gray" d="M 55 259 37 252"/>
<path stroke-width="0.5" stroke="gray" d="M 55 259 25 204"/>
<path stroke-width="0.5" stroke="gray" d="M 103 295 127 289"/>
<path stroke-width="0.5" stroke="gray" d="M 55 259 49 197"/>
<path stroke-width="0.5" stroke="gray" d="M 55 259 127 289"/>
<path stroke-width="0.5" stroke="gray" d="M 86 250 49 197"/>
<path stroke-width="0.5" stroke="gray" d="M 86 250 120 262"/>
<path stroke-width="0.5" stroke="gray" d="M 86 250 127 289"/>
<path stroke-width="0.5" stroke="gray" d="M 51 100 42 89"/>
<path stroke-width="20.0" stroke="gray" d="M 51 100 101 144"/>
<path stroke-width="0.5" stroke="gray" d="M 260 295 310 281"/>
<path stroke-width="0.5" stroke="gray" d="M 260 295 342 288"/>
<path stroke-width="0.5" stroke="gray" d="M 260 295 127 289"/>
<path stroke-width="0.5" stroke="gray" d="M 83 286 37 252"/>
<path stroke-width="20.0" stroke="gray" d="M 83 286 125 172"/>
<path stroke-width="0.5" stroke="gray" d="M 83 286 107 311"/>
<path stroke-width="20.0" stroke="gray" d="M 83 286 165 310"/>
<path stroke-width="0.5" stroke="gray" d="M 55 259 107 311"/>
<path stroke-width="0.5" stroke="gray" d="M 275 60 191 60"/>
<path stroke-width="0.5" stroke="gray" d="M 103 295 120 262"/>
<path stroke-width="0.5" stroke="gray" d="M 302 34 258 33"/>
<path stroke-width="0.5" stroke="gray" d="M 237 45 259 20"/>
<path stroke-width="0.5" stroke="gray" d="M 324 218 261 218"/>
<path stroke-width="0.5" stroke="gray" d="M 324 218 308 303"/>
<path stroke-width="0.5" stroke="gray" d="M 324 218 330 113"/>
<path stroke-width="0.5" stroke="gray" d="M 288 154 321 238"/>
<path stroke-width="0.5" stroke="gray" d="M 288 154 272 193"/>
<path stroke-width="0.5" stroke="gray" d="M 288 154 237 45"/>
<path stroke-width="20.0" stroke="gray" d="M 273 302 308 303"/>
<path stroke-width="0.5" stroke="gray" d="M 273 302 303 204"/>
<path stroke-width="0.5" stroke="gray" d="M 273 302 194 300"/>
<path stroke-width="0.5" stroke="gray" d="M 259 20 258 33"/>
<path stroke-width="0.5" stroke="gray" d="M 259 20 237 45"/>
<path stroke-width="0.5" stroke="gray" d="M 259 20 302 34"/>
<path stroke-width="0.5" stroke="gray" d="M 302 34 259 20"/>
<path stroke-width="20.0" stroke="gray" d="M 370 133 354 85"/>
<path stroke-width="0.5" stroke="gray" d="M 370 133 334 135"/>
<path stroke-width="0.5" stroke="gray" d="M 120 262 190 232"/>
<path stroke-width="0.5" stroke="gray" d="M 120 262 103 295"/>
<path stroke-width="0.5" stroke="gray" d="M 120 262 86 250"/>
<path stroke-width="0.5" stroke="gray" d="M 127 289 103 295"/>
<path stroke-width="0.5" stroke="gray" d="M 127 289 55 259"/>
<path stroke-width="0.5" stroke="gray" d="M 127 289 86 250"/>
<path stroke-width="0.5" stroke="gray" d="M 127 289 260 295"/>
<path stroke-width="0.5" stroke="gray" d="M 355 204 404 227"/>
<path stroke-width="0.5" stroke="gray" d="M 355 204 381 163"/>
<path stroke-width="0.5" stroke="gray" d="M 355 204 190 232"/>
<path stroke-width="0.5" stroke="gray" d="M 56 285 83 286"/>
<path stroke-width="20.0" stroke="gray" d="M 302 34 354 85"/>
<path stroke-width="0.5" stroke="gray" d="M 370 133 341 165"/>
<path stroke-width="0.5" stroke="gray" d="M 275 60 363 67"/>
<path stroke-width="0.5" stroke="gray" d="M 275 60 227 105"/>
<path stroke-width="20.0" stroke="gray" d="M 71 95 30 128"/>
<path stroke-width="0.5" stroke="gray" d="M 324 268 342 288"/>
<path stroke-width="0.5" stroke="gray" d="M 324 268 264 173"/>
<path stroke-width="0.5" stroke="gray" d="M 324 268 367 288"/>
<path stroke-width="0.5" stroke="gray" d="M 324 268 286 301"/>
<path stroke-width="0.5" stroke="gray" d="M 383 271 342 288"/>
<path stroke-width="0.5" stroke="gray" d="M 383 271 418 254"/>
<path stroke-width="0.5" stroke="gray" d="M 383 271 367 288"/>
<path stroke-width="20.0" stroke="gray" d="M 383 271 384 198"/>
<path stroke-width="0.5" stroke="gray" d="M 383 271 286 301"/>
<path stroke-width="0.5" stroke="gray" d="M 321 238 308 303"/>
<path stroke-width="0.5" stroke="gray" d="M 321 238 288 154"/>
<path stroke-width="0.5" stroke="gray" d="M 272 193 261 218"/>
<path stroke-width="0.5" stroke="gray" d="M 272 193 288 154"/>
<path stroke-width="20.0" stroke="gray" d="M 263 310 194 300"/>
<path stroke-width="0.5" stroke="gray" d="M 42 89 100 52"/>
<path stroke-width="0.5" stroke="gray" d="M 42 89 24 128"/>
<path stroke-width="0.5" stroke="gray" d="M 42 89 51 100"/>
<path stroke-width="0.5" stroke="gray" d="M 325 289 261 218"/>
<path stroke-width="0.5" stroke="gray" d="M 325 289 308 303"/>
<path stroke-width="20.0" stroke="gray" d="M 325 289 367 288"/>
<path stroke-width="20.0" stroke="gray" d="M 402 98 381 163"/>
<path stroke-width="0.5" stroke="gray" d="M 402 98 363 67"/>
<path stroke-width="0.5" stroke="gray" d="M 25 204 30 128"/>
<path stroke-width="0.5" stroke="gray" d="M 25 204 55 259"/>
<path stroke-width="0.5" stroke="gray" d="M 125 172 210 89"/>
<path stroke-width="20.0" stroke="gray" d="M 125 172 83 286"/>
<path stroke-width="0.5" stroke="gray" d="M 85 216 59 153"/>
<path stroke-width="0.5" stroke="gray" d="M 85 216 49 197"/>
<path stroke-width="0.5" stroke="gray" d="M 42 89 30 128"/>
<path stroke-width="20.0" stroke="gray" d="M 85 216 194 300"/>
<path stroke-width="0.5" stroke="gray" d="M 263 310 356 301"/>
<path stroke-width="0.5" stroke="gray" d="M 37 252 83 286"/>
<path stroke-width="0.5" stroke="gray" d="M 261 218 272 193"/>
<path stroke-width="0.5" stroke="gray" d="M 261 218 325 289"/>
<path stroke-width="0.5" stroke="gray" d="M 261 218 232 167"/>
<path stroke-width="0.5" stroke="gray" d="M 261 218 194 300"/>
<path stroke-width="0.5" stroke="gray" d="M 261 218 381 163"/>
<path stroke-width="0.5" stroke="gray" d="M 261 218 143 140"/>
<path stroke-width="0.5" stroke="gray" d="M 261 218 242 110"/>
<path stroke-width="0.5" stroke="gray" d="M 261 218 324 218"/>
<path stroke-width="0.5" stroke="gray" d="M 308 303 321 238"/>
<path stroke-width="0.5" stroke="gray" d="M 308 303 325 289"/>
<path stroke-width="20.0" stroke="gray" d="M 308 303 227 320"/>
<path stroke-width="0.5" stroke="gray" d="M 308 303 324 218"/>
<path stroke-width="20.0" stroke="gray" d="M 308 303 273 302"/>
<path stroke-width="0.5" stroke="gray" d="M 263 310 261 218"/>
<path stroke-width="0.5" stroke="gray" d="M 356 301 263 310"/>
<path stroke-width="0.5" stroke="gray" d="M 227 105 232 167"/>
<path stroke-width="0.5" stroke="gray" d="M 227 105 185 76"/>
<path stroke-width="0.5" stroke="gray" d="M 227 105 275 60"/>
<path stroke-width="20.0" stroke="gray" d="M 227 105 264 173"/>
<path stroke-width="0.5" stroke="gray" d="M 227 105 242 110"/>
<path stroke-width="20.0" stroke="gray" d="M 276 96 166 63"/>
<path stroke-width="0.5" stroke="gray" d="M 276 96 303 204"/>
<path stroke-width="20.0" stroke="gray" d="M 166 63 276 96"/>
<path stroke-width="0.5" stroke="gray" d="M 166 63 210 89"/>
<path stroke-width="0.5" stroke="gray" d="M 166 63 100 52"/>
<path stroke-width="0.5" stroke="gray" d="M 166 63 143 140"/>
<path stroke-width="20.0" stroke="gray" d="M 37 252 49 197"/>
<path stroke-width="0.5" stroke="gray" d="M 37 252 55 259"/>
<path stroke-width="0.5" stroke="gray" d="M 356 301 404 227"/>
<path stroke-width="0.5" stroke="gray" d="M 83 286 56 285"/>
<path stroke-width="0.5" stroke="gray" d="M 310 281 260 295"/>
<path stroke-width="0.5" stroke="gray" d="M 342 288 383 271"/>
<path stroke-width="0.5" stroke="gray" d="M 135 85 104 108"/>
<path stroke-width="0.5" stroke="gray" d="M 135 85 176 100"/>
<path stroke-width="0.5" stroke="gray" d="M 135 85 191 60"/>
<path stroke-width="20.0" stroke="gray" d="M 354 85 420 164"/>
<path stroke-width="0.5" stroke="gray" d="M 354 85 176 100"/>
<path stroke-width="20.0" stroke="gray" d="M 354 85 370 133"/>
<path stroke-width="20.0" stroke="gray" d="M 354 85 302 34"/>
<path stroke-width="0.5" stroke="gray" d="M 354 85 363 67"/>
<path stroke-width="20.0" stroke="gray" d="M 42 216 119 231"/>
<path stroke-width="0.5" stroke="gray" d="M 42 216 20 207"/>
<path stroke-width="20.0" stroke="gray" d="M 107 311 194 300"/>
<path stroke-width="0.5" stroke="gray" d="M 107 311 55 259"/>
<path stroke-width="0.5" stroke="gray" d="M 107 311 83 286"/>
<path stroke-width="20.0" stroke="gray" d="M 232 167 286 168"/>
<path stroke-width="0.5" stroke="gray" d="M 341 165 296 119"/>
<path stroke-width="0.5" stroke="gray" d="M 341 165 370 133"/>
<path stroke-width="0.5" stroke="gray" d="M 341 165 286 168"/>
<path stroke-width="0.5" stroke="gray" d="M 334 135 210 89"/>
<path stroke-width="0.5" stroke="gray" d="M 334 135 384 198"/>
<path stroke-width="20.0" stroke="gray" d="M 334 135 330 113"/>
<path stroke-width="0.5" stroke="gray" d="M 334 135 370 133"/>
<path stroke-width="0.5" stroke="gray" d="M 334 135 286 168"/>
<path stroke-width="0.5" stroke="gray" d="M 165 310 150 260"/>
<path stroke-width="0.5" stroke="gray" d="M 165 310 286 301"/>
<path stroke-width="20.0" stroke="gray" d="M 165 310 83 286"/>
<path stroke-width="0.5" stroke="gray" d="M 185 76 227 105"/>
<path stroke-width="0.5" stroke="gray" d="M 71 95 59 153"/>
<path stroke-width="0.5" stroke="gray" d="M 71 95 168 40"/>
<path stroke-width="0.5" stroke="gray" d="M 341 165 384 198"/>
<path stroke-width="0.5" stroke="gray" d="M 342 288 324 268"/>
<path stroke-width="0.5" stroke="gray" d="M 232 167 227 105"/>
<path stroke-width="20.0" stroke="gray" d="M 256 62 237 45"/>
<path stroke-width="0.5" stroke="gray" d="M 342 288 260 295"/>
<path stroke-width="0.5" stroke="gray" d="M 101 144 150 260"/>
<path stroke-width="0.5" stroke="gray" d="M 101 144 176 100"/>
<path stroke-width="20.0" stroke="gray" d="M 101 144 51 100"/>
<path stroke-width="20.0" stroke="gray" d="M 119 231 42 216"/>
<path stroke-width="0.5" stroke="gray" d="M 119 231 150 260"/>
<path stroke-width="0.5" stroke="gray" d="M 119 231 190 232"/>
<path stroke-width="0.5" stroke="gray" d="M 59 153 85 216"/>
<path stroke-width="0.5" stroke="gray" d="M 59 153 71 95"/>
<path stroke-width="20.0" stroke="gray" d="M 49 197 37 252"/>
<path stroke-width="0.5" stroke="gray" d="M 49 197 85 216"/>
<path stroke-width="20.0" stroke="gray" d="M 49 197 143 140"/>
<path stroke-width="20.0" stroke="gray" d="M 49 197 24 128"/>
<path stroke-width="0.5" stroke="gray" d="M 232 167 261 218"/>
<path stroke-width="0.5" stroke="gray" d="M 49 197 55 259"/>
<path stroke-width="0.5" stroke="gray" d="M 168 40 71 95"/>
<path stroke-width="0.5" stroke="gray" d="M 168 40 258 33"/>
<path stroke-width="0.5" stroke="gray" d="M 168 40 237 45"/>
<path stroke-width="0.5" stroke="gray" d="M 210 89 166 63"/>
<path stroke-width="0.5" stroke="gray" d="M 210 89 125 172"/>
<path stroke-width="0.5" stroke="gray" d="M 210 89 256 62"/>
<path stroke-width="0.5" stroke="gray" d="M 210 89 334 135"/>
<path stroke-width="0.5" stroke="gray" d="M 296 119 256 62"/>
<path stroke-width="0.5" stroke="gray" d="M 296 119 341 165"/>
<path stroke-width="0.5" stroke="gray" d="M 100 52 166 63"/>
<path stroke-width="0.5" stroke="gray" d="M 100 52 42 89"/>
<path stroke-width="0.5" stroke="gray" d="M 256 62 210 89"/>
<path stroke-width="0.5" stroke="gray" d="M 256 62 296 119"/>
<path stroke-width="0.5" stroke="gray" d="M 49 197 86 250"/>
<path stroke-width="0.5" stroke="gray" d="M 83 286 103 295"/>
<circle cx="261" cy="218" r="7.0" style="fill:gray;stroke:black;stroke-width:1.0"/>
<circle cx="308" cy="303" r="7.0" style="fill:gray;stroke:black;stroke-width:1.0"/>
<circle cx="356" cy="301" r="7.0" style="fill:gray;stroke:black;stroke-width:1.0"/>
<circle cx="227" cy="105" r="7.0" style="fill:gray;stroke:black;stroke-width:1.0"/>
<circle cx="276" cy="96" r="7.0" style="fill:gray;stroke:black;stroke-width:1.0"/>
<circle cx="166" cy="63" r="7.0" style="fill:gray;stroke:black;stroke-width:1.0"/>
<circle cx="37" cy="252" r="7.0" style="fill:gray;stroke:black;stroke-width:1.0"/>
<circle cx="263" cy="310" r="7.0" style="fill:gray;stroke:black;stroke-width:1.0"/>
<circle cx="324" cy="268" r="7.0" style="fill:gray;stroke:black;stroke-width:1.0"/>
<circle cx="383" cy="271" r="7.0" style="fill:gray;stroke:black;stroke-width:1.0"/>
<circle cx="321" cy="238" r="7.0" style="fill:gray;stroke:black;stroke-width:1.0"/>
<circle cx="272" cy="193" r="7.0" style="fill:gray;stroke:black;stroke-width:1.0"/>
<circle cx="42" cy="89" r="7.0" style="fill:gray;stroke:black;stroke-width:1.0"/>
<circle cx="325" cy="289" r="7.0" style="fill:gray;stroke:black;stroke-width:1.0"/>
<circle cx="402" cy="98" r="7.0" style="fill:gray;stroke:black;stroke-width:1.0"/>
<circle cx="25" cy="204" r="7.0" style="fill:gray;stroke:black;stroke-width:1.0"/>
<circle cx="125" cy="172" r="7.0" style="fill:gray;stroke:black;stroke-width:1.0"/>
<circle cx="85" cy="216" r="7.0" style="fill:gray;stroke:black;stroke-width:1.0"/>
<circle cx="310" cy="281" r="7.0" style="fill:gray;stroke:black;stroke-width:1.0"/>
<circle cx="342" cy="288" r="7.0" style="fill:gray;stroke:black;stroke-width:1.0"/>
<circle cx="101" cy="144" r="7.0" style="fill:gray;stroke:black;stroke-width:1.0"/>
<circle cx="119" cy="231" r="7.0" style="fill:gray;stroke:black;stroke-width:1.0"/>
<circle cx="59" cy="153" r="7.0" style="fill:gray;stroke:black;stroke-width:1.0"/>
<circle cx="49" cy="197" r="7.0" style="fill:gray;stroke:black;stroke-width:1.0"/>
<circle cx="168" cy="40" r="7.0" style="fill:gray;stroke:black;stroke-width:1.0"/>
<circle cx="210" cy="89" r="7.0" style="fill:gray;stroke:black;stroke-width:1.0"/>
<circle cx="296" cy="119" r="7.0" style="fill:gray;stroke:black;stroke-width:1.0"/>
<circle cx="100" cy="52" r="7.0" style="fill:gray;stroke:black;stroke-width:1.0"/>
<circle cx="256" cy="62" r="7.0" style="fill:gray;stroke:black;stroke-width:1.0"/>
<circle cx="232" cy="167" r="7.0" style="fill:gray;stroke:black;stroke-width:1.0"/>
<circle cx="135" cy="85" r="7.0" style="fill:gray;stroke:black;stroke-width:1.0"/>
<circle cx="354" cy="85" r="7.0" style="fill:gray;stroke:black;stroke-width:1.0"/>
<circle cx="42" cy="216" r="7.0" style="fill:gray;stroke:black;stroke-width:1.0"/>
<circle cx="107" cy="311" r="7.0" style="fill:gray;stroke:black;stroke-width:1.0"/>
<circle cx="341" cy="165" r="7.0" style="fill:gray;stroke:black;stroke-width:1.0"/>
<circle cx="334" cy="135" r="7.0" style="fill:gray;stroke:black;stroke-width:1.0"/>
<circle cx="165" cy="310" r="7.0" style="fill:gray;stroke:black;stroke-width:1.0"/>
<circle cx="185" cy="76" r="7.0" style="fill:gray;stroke:black;stroke-width:1.0"/>
<circle cx="71" cy="95" r="7.0" style="fill:gray;stroke:black;stroke-width:1.0"/>
<circle cx="275" cy="60" r="7.0" style="fill:gray;stroke:black;stroke-width:1.0"/>
<circle cx="20" cy="207" r="7.0" style="fill:gray;stroke:black;stroke-width:1.0"/>
<circle cx="104" cy="108" r="7.0" style="fill:gray;stroke:black;stroke-width:1.0"/>
<circle cx="303" cy="204" r="7.0" style="fill:gray;stroke:black;stroke-width:1.0"/>
<circle cx="194" cy="300" r="7.0" style="fill:gray;stroke:black;stroke-width:1.0"/>
<circle cx="418" cy="254" r="7.0" style="fill:gray;stroke:black;stroke-width:1.0"/>
<circle cx="30" cy="128" r="7.0" style="fill:gray;stroke:black;stroke-width:1.0"/>
<circle cx="264" cy="173" r="7.0" style="fill:gray;stroke:black;stroke-width:1.0"/>
<circle cx="404" cy="227" r="7.0" style="fill:gray;stroke:black;stroke-width:1.0"/>
<circle cx="381" cy="163" r="7.0" style="fill:gray;stroke:black;stroke-width:1.0"/>
<circle cx="227" cy="320" r="7.0" style="fill:gray;stroke:black;stroke-width:1.0"/>
<circle cx="367" cy="288" r="7.0" style="fill:gray;stroke:black;stroke-width:1.0"/>
<circle cx="384" cy="198" r="7.0" style="fill:gray;stroke:black;stroke-width:1.0"/>
<circle cx="150" cy="260" r="7.0" style="fill:gray;stroke:black;stroke-width:1.0"/>
<circle cx="420" cy="164" r="7.0" style="fill:gray;stroke:black;stroke-width:1.0"/>
<circle cx="176" cy="100" r="7.0" style="fill:gray;stroke:black;stroke-width:1.0"/>
<circle cx="143" cy="140" r="7.0" style="fill:gray;stroke:black;stroke-width:1.0"/>
<circle cx="286" cy="301" r="7.0" style="fill:gray;stroke:black;stroke-width:1.0"/>
<circle cx="242" cy="110" r="7.0" style="fill:gray;stroke:black;stroke-width:1.0"/>
<circle cx="190" cy="232" r="7.0" style="fill:gray;stroke:black;stroke-width:1.0"/>
<circle cx="330" cy="113" r="7.0" style="fill:gray;stroke:black;stroke-width:1.0"/>
<circle cx="258" cy="33" r="7.0" style="fill:gray;stroke:black;stroke-width:1.0"/>
<circle cx="237" cy="45" r="7.0" style="fill:gray;stroke:black;stroke-width:1.0"/>
<circle cx="324" cy="218" r="7.0" style="fill:gray;stroke:black;stroke-width:1.0"/>
<circle cx="288" cy="154" r="7.0" style="fill:gray;stroke:black;stroke-width:1.0"/>
<circle cx="273" cy="302" r="7.0" style="fill:gray;stroke:black;stroke-width:1.0"/>
<circle cx="259" cy="20" r="7.0" style="fill:gray;stroke:black;stroke-width:1.0"/>
<circle cx="370" cy="133" r="7.0" style="fill:gray;stroke:black;stroke-width:1.0"/>
<circle cx="120" cy="262" r="7.0" style="fill:gray;stroke:black;stroke-width:1.0"/>
<circle cx="127" cy="289" r="7.0" style="fill:gray;stroke:black;stroke-width:1.0"/>
<circle cx="355" cy="204" r="7.0" style="fill:gray;stroke:black;stroke-width:1.0"/>
<circle cx="56" cy="285" r="7.0" style="fill:gray;stroke:black;stroke-width:1.0"/>
<circle cx="302" cy="34" r="7.0" style="fill:gray;stroke:black;stroke-width:1.0"/>
<circle cx="103" cy="295" r="7.0" style="fill:gray;stroke:black;stroke-width:1.0"/>
<circle cx="363" cy="67" r="7.0" style="fill:gray;stroke:black;stroke-width:1.0"/>
<circle cx="286" cy="168" r="7.0" style="fill:gray;stroke:black;stroke-width:1.0"/>
<circle cx="24" cy="128" r="7.0" style="fill:gray;stroke:black;stroke-width:1.0"/>
<circle cx="191" cy="60" r="7.0" style="fill:gray;stroke:black;stroke-width:1.0"/>
<circle cx="55" cy="259" r="7.0" style="fill:gray;stroke:black;stroke-width:1.0"/>
<circle cx="86" cy="250" r="7.0" style="fill:gray;stroke:black;stroke-width:1.0"/>
<circle cx="51" cy="100" r="7.0" style="fill:gray;stroke:black;stroke-width:1.0"/>
<circle cx="260" cy="295" r="7.0" style="fill:gray;stroke:black;stroke-width:1.0"/>
<circle cx="83" cy="286" r="7.0" style="fill:gray;stroke:black;stroke-width:1.0"/>
<text text-anchor="start" x="271" y="218" font-size="12">A</text><text text-anchor="start" x="318" y="303" font-size="12">AA</text><text text-anchor="start" x="366" y="301" font-size="12">AD</text><text text-anchor="start" x="237" y="105" font-size="12">AJ</text><text text-anchor="start" x="286" y="96" font-size="12">AV</text><text text-anchor="start" x="176" y="63" font-size="12">AX</text><text text-anchor="start" x="47" y="252" font-size="12">AZ</text><text text-anchor="start" x="273" y="310" font-size="12">BK</text><text text-anchor="start" x="334" y="268" font-size="12">C</text><text text-anchor="start" x="393" y="271" font-size="12">CG</text><text text-anchor="start" x="331" y="238" font-size="12">D</text><text text-anchor="start" x="282" y="193" font-size="12">DZ</text><text text-anchor="start" x="52" y="89" font-size="12">E</text><text text-anchor="start" x="335" y="289" font-size="12">EI</text><text text-anchor="start" x="412" y="98" font-size="12">EQ</text><text text-anchor="start" x="35" y="204" font-size="12">ER</text><text text-anchor="start" x="135" y="172" font-size="12">ET</text><text text-anchor="start" x="95" y="216" font-size="12">EU</text><text text-anchor="start" x="320" y="281" font-size="12">F</text><text text-anchor="start" x="352" y="288" font-size="12">FF</text><text text-anchor="start" x="111" y="144" font-size="12">FR</text><text text-anchor="start" x="129" y="231" font-size="12">FV</text><text text-anchor="start" x="69" y="153" font-size="12">G</text><text text-anchor="start" x="59" y="197" font-size="12">GJ</text><text text-anchor="start" x="178" y="40" font-size="12">GQ</text><text text-anchor="start" x="220" y="89" font-size="12">H</text><text text-anchor="start" x="306" y="119" font-size="12">HF</text><text text-anchor="start" x="110" y="52" font-size="12">HP</text><text text-anchor="start" x="266" y="62" font-size="12">JI</text><text text-anchor="start" x="242" y="167" font-size="12">JW</text><text text-anchor="start" x="145" y="85" font-size="12">K</text><text text-anchor="start" x="364" y="85" font-size="12">KU</text><text text-anchor="start" x="52" y="216" font-size="12">KV</text><text text-anchor="start" x="117" y="311" font-size="12">KX</text><text text-anchor="start" x="351" y="165" font-size="12">L</text><text text-anchor="start" x="344" y="135" font-size="12">LM</text><text text-anchor="start" x="175" y="310" font-size="12">LN</text><text text-anchor="start" x="195" y="76" font-size="12">M</text><text text-anchor="start" x="81" y="95" font-size="12">MF</text><text text-anchor="start" x="285" y="60" font-size="12">MK</text><text text-anchor="start" x="30" y="207" font-size="12">O</text><text text-anchor="start" x="114" y="108" font-size="12">OF</text><text text-anchor="start" x="313" y="204" font-size="12">P</text><text text-anchor="start" x="204" y="300" font-size="12">PI</text><text text-anchor="start" x="428" y="254" font-size="12">Q</text><text text-anchor="start" x="40" y="128" font-size="12">QO</text><text text-anchor="start" x="274" y="173" font-size="12">QX</text><text text-anchor="start" x="414" y="227" font-size="12">R</text><text text-anchor="start" x="391" y="163" font-size="12">RC</text><text text-anchor="start" x="237" y="320" font-size="12">RO</text><text text-anchor="start" x="377" y="288" font-size="12">RV</text><text text-anchor="start" x="394" y="198" font-size="12">SU</text><text text-anchor="start" x="160" y="260" font-size="12">T</text><text text-anchor="start" x="430" y="164" font-size="12">TC</text><text text-anchor="start" x="186" y="100" font-size="12">TF</text><text text-anchor="start" x="153" y="140" font-size="12">TG</text><text text-anchor="start" x="296" y="301" font-size="12">TI</text><text text-anchor="start" x="252" y="110" font-size="12">TR</text><text text-anchor="start" x="200" y="232" font-size="12">TX</text><text text-anchor="start" x="340" y="113" font-size="12">UJ</text><text text-anchor="start" x="268" y="33" font-size="12">V</text><text text-anchor="start" x="247" y="45" font-size="12">VD</text><text text-anchor="start" x="334" y="218" font-size="12">VJ</text><text text-anchor="start" x="298" y="154" font-size="12">VO</text><text text-anchor="start" x="283" y="302" font-size="12">VQ</text><text text-anchor="start" x="269" y="20" font-size="12">VS</text><text text-anchor="start" x="380" y="133" font-size="12">VY</text><text text-anchor="start" x="130" y="262" font-size="12">W</text><text text-anchor="start" x="137" y="289" font-size="12">WI</text><text text-anchor="start" x="365" y="204" font-size="12">WR</text><text text-anchor="start" x="66" y="285" font-size="12">X</text><text text-anchor="start" x="312" y="34" font-size="12">XL</text><text text-anchor="start" x="113" y="295" font-size="12">XO</text><text text-anchor="start" x="373" y="67" font-size="12">Y</text><text text-anchor="start" x="296" y="168" font-size="12">YI</text><text text-anchor="start" x="34" y="128" font-size="12">YJ</text><text text-anchor="start" x="201" y="60" font-size="12">YW</text><text text-anchor="start" x="65" y="259" font-size="12">Z</text><text text-anchor="start" x="96" y="250" font-size="12">ZJ</text><text text-anchor="start" x="61" y="100" font-size="12">ZK</text><text text-anchor="start" x="270" y="295" font-size="12">ZL</text><text text-anchor="start" x="93" y="286" font-size="12">ZR</text></svg>