<svg xmlns="http://www.w3.org/2000/svg" width="464.0" height="340">
<path stroke-width="0.5" stroke="gray" d="M 155 131 54 194"/>
<path stroke-width="0.5" stroke="gray" d="M 162 173 177 166"/>
<path stroke-width="20.0" stroke="gray" d="M 130 220 251 186"/>
<path stroke-width="0.5" stroke="gray" d="M 130 220 40 213"/>
<path stroke-width="0.5" stroke="gray" d="M 210 249 255 228"/>
<path stroke-width="0.5" stroke="gray" d="M 210 249 110 283"/>
<path stroke-width="0.5" stroke="gray" d="M 210 249 251 186"/>
<path stroke-width="0.5" stroke="gray" d="M 308 215 155 131"/>
<path stroke-width="0.5" stroke="gray" d="M 308 215 401 224"/>
<path stroke-width="20.0" stroke="gray" d="M 308 215 284 281"/>
<path stroke-width="0.5" stroke="gray" d="M 71 105 56 76"/>
<path stroke-width="0.5" stroke="gray" d="M 71 105 110 65"/>
<path stroke-width="0.5" stroke="gray" d="M 71 105 121 197"/>
<path stroke-width="0.5" stroke="gray" d="M 214 57 155 131"/>
<path stroke-width="0.5" stroke="gray" d="M 214 57 156 67"/>
<path stroke-width="20.0" stroke="gray" d="M 214 57 323 52"/>
<path stroke-width="0.5" stroke="gray" d="M 101 172 135 105"/>
<path stroke-width="0.5" stroke="gray" d="M 101 172 182 244"/>
<path stroke-width="0.5" stroke="gray" d="M 101 172 32 182"/>
<path stroke-width="20.0" stroke="gray" d="M 338 95 367 128"/>
<path stroke-width="0.5" stroke="gray" d="M 338 95 352 65"/>
<path stroke-width="0.5" stroke="gray" d="M 338 95 237 121"/>
<path stroke-width="0.5" stroke="gray" d="M 352 65 322 68"/>
<path stroke-width="0.5" stroke="gray" d="M 352 65 338 95"/>
<path stroke-width="0.5" stroke="gray" d="M 352 65 323 52"/>
<path stroke-width="0.5" stroke="gray" d="M 352 65 364 63"/>
<path stroke-width="0.5" stroke="gray" d="M 352 65 354 98"/>
<path stroke-width="0.5" stroke="gray" d="M 323 52 322 68"/>
<path stroke-width="0.5" stroke="gray" d="M 162 173 121 197"/>
<path stroke-width="0.5" stroke="gray" d="M 162 173 135 105"/>
<path stroke-width="0.5" stroke="gray" d="M 162 173 255 228"/>
<path stroke-width="0.5" stroke="gray" d="M 287 87 367 128"/>
<path stroke-width="0.5" stroke="gray" d="M 197 20 169 35"/>
<path stroke-width="0.5" stroke="gray" d="M 100 299 110 283"/>
<path stroke-width="0.5" stroke="gray" d="M 297 278 374 265"/>
<path stroke-width="0.5" stroke="gray" d="M 297 278 176 244"/>
<path stroke-width="0.5" stroke="gray" d="M 101 241 155 131"/>
<path stroke-width="20.0" stroke="gray" d="M 101 241 54 194"/>
<path stroke-width="20.0" stroke="gray" d="M 101 241 164 254"/>
<path stroke-width="20.0" stroke="gray" d="M 101 241 160 298"/>
<path stroke-width="0.5" stroke="gray" d="M 101 241 176 244"/>
<path stroke-width="0.5" stroke="gray" d="M 116 42 110 65"/>
<path stroke-width="0.5" stroke="gray" d="M 348 196 388 226"/>
<path stroke-width="0.5" stroke="gray" d="M 348 196 312 246"/>
<path stroke-width="20.0" stroke="gray" d="M 348 196 293 139"/>
<path stroke-width="20.0" stroke="gray" d="M 323 52 408 119"/>
<path stroke-width="20.0" stroke="gray" d="M 96 60 156 67"/>
<path stroke-width="0.5" stroke="gray" d="M 40 213 20 206"/>
<path stroke-width="0.5" stroke="gray" d="M 40 213 130 220"/>
<path stroke-width="0.5" stroke="gray" d="M 40 213 32 182"/>
<path stroke-width="0.5" stroke="gray" d="M 32 160 155 131"/>
<path stroke-width="20.0" stroke="gray" d="M 32 160 21 184"/>
<path stroke-width="0.5" stroke="gray" d="M 32 160 32 182"/>
<path stroke-width="20.0" stroke="gray" d="M 177 166 194 152"/>
<path stroke-width="0.5" stroke="gray" d="M 177 166 162 173"/>
<path stroke-width="0.5" stroke="gray" d="M 57 83 56 76"/>
<path stroke-width="0.5" stroke="gray" d="M 57 83 110 65"/>
<path stroke-width="20.0" stroke="gray" d="M 57 83 104 116"/>
<path stroke-width="20.0" stroke="gray" d="M 287 87 110 65"/>
<path stroke-width="0.5" stroke="gray" d="M 287 87 368 113"/>
<path stroke-width="0.5" stroke="gray" d="M 96 60 56 76"/>
<path stroke-width="20.0" stroke="gray" d="M 323 52 214 57"/>
<path stroke-width="0.5" stroke="gray" d="M 323 52 352 65"/>
<path stroke-width="0.5" stroke="gray" d="M 323 52 268 61"/>
<path stroke-width="0.5" stroke="gray" d="M 193 282 203 299"/>
<path stroke-width="0.5" stroke="gray" d="M 97 193 21 184"/>
<path stroke-width="0.5" stroke="gray" d="M 97 193 251 186"/>
<path stroke-width="0.5" stroke="gray" d="M 97 193 88 175"/>
<path stroke-width="20.0" stroke="gray" d="M 330 105 216 83"/>
<path stroke-width="0.5" stroke="gray" d="M 330 105 368 113"/>
<path stroke-width="0.5" stroke="gray" d="M 330 105 367 128"/>
<path stroke-width="0.5" stroke="gray" d="M 369 257 388 226"/>
<path stroke-width="20.0" stroke="gray" d="M 369 257 284 281"/>
<path stroke-width="0.5" stroke="gray" d="M 77 250 110 283"/>
<path stroke-width="0.5" stroke="gray" d="M 77 250 88 175"/>
<path stroke-width="0.5" stroke="gray" d="M 248 293 256 311"/>
<path stroke-width="0.5" stroke="gray" d="M 248 293 312 246"/>
<path stroke-width="0.5" stroke="gray" d="M 193 282 196 259"/>
<path stroke-width="0.5" stroke="gray" d="M 248 293 284 281"/>
<path stroke-width="0.5" stroke="gray" d="M 248 293 196 259"/>
<path stroke-width="0.5" stroke="gray" d="M 238 269 284 281"/>
<path stroke-width="0.5" stroke="gray" d="M 238 269 182 244"/>
<path stroke-width="0.5" stroke="gray" d="M 238 269 196 259"/>
<path stroke-width="0.5" stroke="gray" d="M 350 235 388 226"/>
<path stroke-width="20.0" stroke="gray" d="M 350 235 255 228"/>
<path stroke-width="0.5" stroke="gray" d="M 96 153 83 136"/>
<path stroke-width="0.5" stroke="gray" d="M 96 153 71 88"/>
<path stroke-width="0.5" stroke="gray" d="M 96 153 196 259"/>
<path stroke-width="0.5" stroke="gray" d="M 203 299 256 311"/>
<path stroke-width="20.0" stroke="gray" d="M 203 299 333 263"/>
<path stroke-width="0.5" stroke="gray" d="M 203 299 160 298"/>
<path stroke-width="20.0" stroke="gray" d="M 203 299 121 197"/>
<path stroke-width="0.5" stroke="gray" d="M 248 293 160 298"/>
<path stroke-width="0.5" stroke="gray" d="M 88 175 77 250"/>
<path stroke-width="0.5" stroke="gray" d="M 193 282 182 244"/>
<path stroke-width="0.5" stroke="gray" d="M 354 98 352 65"/>
<path stroke-width="0.5" stroke="gray" d="M 323 52 364 63"/>
<path stroke-width="0.5" stroke="gray" d="M 237 121 155 131"/>
<path stroke-width="0.5" stroke="gray" d="M 237 121 194 152"/>
<path stroke-width="0.5" stroke="gray" d="M 237 121 338 95"/>
<path stroke-width="0.5" stroke="gray" d="M 268 61 247 106"/>
<path stroke-width="0.5" stroke="gray" d="M 268 61 217 75"/>
<path stroke-width="0.5" stroke="gray" d="M 268 61 323 52"/>
<path stroke-width="20.0" stroke="gray" d="M 176 244 194 152"/>
<path stroke-width="0.5" stroke="gray" d="M 176 244 297 278"/>
<path stroke-width="0.5" stroke="gray" d="M 176 244 101 241"/>
<path stroke-width="0.5" stroke="gray" d="M 364 63 352 65"/>
<path stroke-width="0.5" stroke="gray" d="M 364 63 323 52"/>
<path stroke-width="0.5" stroke="gray" d="M 364 63 354 98"/>
<path stroke-width="0.5" stroke="gray" d="M 354 98 364 63"/>
<path stroke-width="20.0" stroke="gray" d="M 359 150 251 186"/>
<path stroke-width="0.5" stroke="gray" d="M 359 150 367 128"/>
<path stroke-width="0.5" stroke="gray" d="M 182 244 101 172"/>
<path stroke-width="0.5" stroke="gray" d="M 182 244 193 282"/>
<path stroke-width="0.5" stroke="gray" d="M 182 244 238 269"/>
<path stroke-width="0.5" stroke="gray" d="M 196 259 193 282"/>
<path stroke-width="0.5" stroke="gray" d="M 196 259 248 293"/>
<path stroke-width="0.5" stroke="gray" d="M 196 259 238 269"/>
<path stroke-width="0.5" stroke="gray" d="M 196 259 96 153"/>
<path stroke-width="0.5" stroke="gray" d="M 32 182 40 213"/>
<path stroke-width="0.5" stroke="gray" d="M 32 182 32 160"/>
<path stroke-width="0.5" stroke="gray" d="M 32 182 101 172"/>
<path stroke-width="0.5" stroke="gray" d="M 200 320 203 299"/>
<path stroke-width="20.0" stroke="gray" d="M 354 98 251 186"/>
<path stroke-width="0.5" stroke="gray" d="M 359 150 368 113"/>
<path stroke-width="0.5" stroke="gray" d="M 88 175 97 193"/>
<path stroke-width="0.5" stroke="gray" d="M 88 175 156 67"/>
<path stroke-width="20.0" stroke="gray" d="M 293 139 348 196"/>
<path stroke-width="0.5" stroke="gray" d="M 56 76 71 88"/>
<path stroke-width="0.5" stroke="gray" d="M 56 76 96 60"/>
<path stroke-width="0.5" stroke="gray" d="M 56 76 57 83"/>
<path stroke-width="0.5" stroke="gray" d="M 56 76 71 105"/>
<path stroke-width="0.5" stroke="gray" d="M 110 65 71 88"/>
<path stroke-width="0.5" stroke="gray" d="M 110 65 116 42"/>
<path stroke-width="0.5" stroke="gray" d="M 110 65 57 83"/>
<path stroke-width="20.0" stroke="gray" d="M 110 65 287 87"/>
<path stroke-width="0.5" stroke="gray" d="M 110 65 71 105"/>
<path stroke-width="0.5" stroke="gray" d="M 247 106 194 152"/>
<path stroke-width="0.5" stroke="gray" d="M 247 106 268 61"/>
<path stroke-width="0.5" stroke="gray" d="M 217 75 155 131"/>
<path stroke-width="0.5" stroke="gray" d="M 217 75 268 61"/>
<path stroke-width="20.0" stroke="gray" d="M 54 194 101 241"/>
<path stroke-width="0.5" stroke="gray" d="M 388 226 420 221"/>
<path stroke-width="0.5" stroke="gray" d="M 388 226 369 257"/>
<path stroke-width="0.5" stroke="gray" d="M 388 226 350 235"/>
<path stroke-width="0.5" stroke="gray" d="M 104 116 155 131"/>
<path stroke-width="0.5" stroke="gray" d="M 104 116 194 152"/>
<path stroke-width="20.0" stroke="gray" d="M 104 116 57 83"/>
<path stroke-width="20.0" stroke="gray" d="M 21 184 32 160"/>
<path stroke-width="0.5" stroke="gray" d="M 21 184 97 193"/>
<path stroke-width="0.5" stroke="gray" d="M 312 246 348 196"/>
<path stroke-width="0.5" stroke="gray" d="M 312 246 248 293"/>
<path stroke-width="0.5" stroke="gray" d="M 333 263 399 185"/>
<path stroke-width="20.0" stroke="gray" d="M 333 263 203 299"/>
<path stroke-width="0.5" stroke="gray" d="M 164 254 209 194"/>
<path stroke-width="0.5" stroke="gray" d="M 164 254 284 281"/>
<path stroke-width="0.5" stroke="gray" d="M 388 226 348 196"/>
<path stroke-width="20.0" stroke="gray" d="M 164 254 101 241"/>
<path stroke-width="0.5" stroke="gray" d="M 54 194 20 206"/>
<path stroke-width="0.5" stroke="gray" d="M 256 311 203 299"/>
<path stroke-width="0.5" stroke="gray" d="M 155 131 217 75"/>
<path stroke-width="0.5" stroke="gray" d="M 155 131 104 116"/>
<path stroke-width="0.5" stroke="gray" d="M 155 131 216 83"/>
<path stroke-width="0.5" stroke="gray" d="M 155 131 101 241"/>
<path stroke-width="0.5" stroke="gray" d="M 155 131 32 160"/>
<path stroke-width="0.5" stroke="gray" d="M 155 131 308 215"/>
<path stroke-width="0.5" stroke="gray" d="M 155 131 214 57"/>
<path stroke-width="0.5" stroke="gray" d="M 155 131 237 121"/>
<path stroke-width="0.5" stroke="gray" d="M 194 152 247 106"/>
<path stroke-width="0.5" stroke="gray" d="M 194 152 104 116"/>
<path stroke-width="20.0" stroke="gray" d="M 194 152 177 166"/>
<path stroke-width="0.5" stroke="gray" d="M 194 152 237 121"/>
<path stroke-width="20.0" stroke="gray" d="M 194 152 176 244"/>
<path stroke-width="0.5" stroke="gray" d="M 54 194 155 131"/>
<path stroke-width="0.5" stroke="gray" d="M 20 206 54 194"/>
<path stroke-width="0.5" stroke="gray" d="M 156 67 216 83"/>
<path stroke-width="0.5" stroke="gray" d="M 156 67 183 47"/>
<path stroke-width="0.5" stroke="gray" d="M 156 67 88 175"/>
<path stroke-width="20.0" stroke="gray" d="M 156 67 96 60"/>
<path stroke-width="0.5" stroke="gray" d="M 156 67 214 57"/>
<path stroke-width="20.0" stroke="gray" d="M 374 265 401 224"/>
<path stroke-width="0.5" stroke="gray" d="M 374 265 297 278"/>
<path stroke-width="20.0" stroke="gray" d="M 401 224 374 265"/>
<path stroke-width="0.5" stroke="gray" d="M 401 224 399 185"/>
<path stroke-width="0.5" stroke="gray" d="M 401 224 420 221"/>
<path stroke-width="0.5" stroke="gray" d="M 401 224 308 215"/>
<path stroke-width="20.0" stroke="gray" d="M 256 311 284 281"/>
<path stroke-width="0.5" stroke="gray" d="M 256 311 248 293"/>
<path stroke-width="0.5" stroke="gray" d="M 20 206 40 213"/>
<path stroke-width="0.5" stroke="gray" d="M 203 299 200 320"/>
<path stroke-width="0.5" stroke="gray" d="M 83 136 96 153"/>
<path stroke-width="0.5" stroke="gray" d="M 71 88 110 65"/>
<path stroke-width="0.5" stroke="gray" d="M 110 283 100 299"/>
<path stroke-width="0.5" stroke="gray" d="M 110 283 210 249"/>
<path stroke-width="0.5" stroke="gray" d="M 110 283 77 250"/>
<path stroke-width="20.0" stroke="gray" d="M 251 186 130 220"/>
<path stroke-width="0.5" stroke="gray" d="M 251 186 210 249"/>
<path stroke-width="20.0" stroke="gray" d="M 251 186 359 150"/>
<path stroke-width="20.0" stroke="gray" d="M 251 186 354 98"/>
<path stroke-width="0.5" stroke="gray" d="M 251 186 97 193"/>
<path stroke-width="20.0" stroke="gray" d="M 169 35 135 105"/>
<path stroke-width="0.5" stroke="gray" d="M 169 35 197 20"/>
<path stroke-width="20.0" stroke="gray" d="M 160 298 101 241"/>
<path stroke-width="0.5" stroke="gray" d="M 160 298 248 293"/>
<path stroke-width="0.5" stroke="gray" d="M 160 298 203 299"/>
<path stroke-width="20.0" stroke="gray" d="M 216 83 330 105"/>
<path stroke-width="0.5" stroke="gray" d="M 368 113 411 114"/>
<path stroke-width="0.5" stroke="gray" d="M 368 113 359 150"/>
<path stroke-width="0.5" stroke="gray" d="M 368 113 330 105"/>
<path stroke-width="0.5" stroke="gray" d="M 367 128 399 185"/>
<path stroke-width="0.5" stroke="gray" d="M 367 128 287 87"/>
<path stroke-width="20.0" stroke="gray" d="M 367 128 338 95"/>
<path stroke-width="0.5" stroke="gray" d="M 367 128 359 150"/>
<path stroke-width="0.5" stroke="gray" d="M 367 128 330 105"/>
<path stroke-width="0.5" stroke="gray" d="M 121 197 162 173"/>
<path stroke-width="0.5" stroke="gray" d="M 121 197 71 105"/>
<path stroke-width="20.0" stroke="gray" d="M 121 197 203 299"/>
<path stroke-width="0.5" stroke="gray" d="M 183 47 156 67"/>
<path stroke-width="0.5" stroke="gray" d="M 293 139 209 194"/>
<path stroke-width="0.5" stroke="gray" d="M 293 139 322 68"/>
<path stroke-width="0.5" stroke="gray" d="M 368 113 287 87"/>
<path stroke-width="0.5" stroke="gray" d="M 71 88 56 76"/>
<path stroke-width="0.5" stroke="gray" d="M 216 83 156 67"/>
<path stroke-width="20.0" stroke="gray" d="M 408 119 323 52"/>
<path stroke-width="0.5" stroke="gray" d="M 71 88 96 153"/>
<path stroke-width="0.5" stroke="gray" d="M 255 228 162 173"/>
<path stroke-width="0.5" stroke="gray" d="M 255 228 210 249"/>
<path stroke-width="20.0" stroke="gray" d="M 255 228 350 235"/>
<path stroke-width="20.0" stroke="gray" d="M 135 105 169 35"/>
<path stroke-width="0.5" stroke="gray" d="M 135 105 162 173"/>
<path stroke-width="0.5" stroke="gray" d="M 135 105 101 172"/>
<path stroke-width="0.5" stroke="gray" d="M 209 194 164 254"/>
<path stroke-width="0.5" stroke="gray" d="M 209 194 293 139"/>
<path stroke-width="20.0" stroke="gray" d="M 284 281 256 311"/>
<path stroke-width="0.5" stroke="gray" d="M 284 281 164 254"/>
<path stroke-width="20.0" stroke="gray" d="M 284 281 308 215"/>
<path stroke-width="20.0" stroke="gray" d="M 284 281 369 257"/>
<path stroke-width="0.5" stroke="gray" d="M 216 83 155 131"/>
<path stroke-width="0.5" stroke="gray" d="M 284 281 248 293"/>
<path stroke-width="0.5" stroke="gray" d="M 322 68 293 139"/>
<path stroke-width="0.5" stroke="gray" d="M 322 68 352 65"/>
<path stroke-width="0.5" stroke="gray" d="M 322 68 323 52"/>
<path stroke-width="0.5" stroke="gray" d="M 399 185 401 224"/>
<path stroke-width="0.5" stroke="gray" d="M 399 185 333 263"/>
<path stroke-width="0.5" stroke="gray" d="M 399 185 408 119"/>
<path stroke-width="0.5" stroke="gray" d="M 399 185 367 128"/>
<path stroke-width="0.5" stroke="gray" d="M 411 114 408 119"/>
<path stroke-width="0.5" stroke="gray" d="M 411 114 368 113"/>
<path stroke-width="0.5" stroke="gray" d="M 420 221 401 224"/>
<path stroke-width="0.5" stroke="gray" d="M 420 221 388 226"/>
<path stroke-width="0.5" stroke="gray" d="M 408 119 399 185"/>
<path stroke-width="0.5" stroke="gray" d="M 408 119 411 114"/>
<path stroke-width="0.5" stroke="gray" d="M 284 281 238 269"/>
<path stroke-width="0.5" stroke="gray" d="M 203 299 193 282"/>
<circle cx="155" cy="131" r="7.0" style="fill:gray;stroke:black;stroke-width:1.0"/>
<circle cx="194" cy="152" r="7.0" style="fill:gray;stroke:black;stroke-width:1.0"/>
<circle cx="20" cy="206" r="7.0" style="fill:gray;stroke:black;stroke-width:1.0"/>
<circle cx="156" cy="67" r="7.0" style="fill:gray;stroke:black;stroke-width:1.0"/>
<circle cx="374" cy="265" r="7.0" style="fill:gray;stroke:black;stroke-width:1.0"/>
<circle cx="401" cy="224" r="7.0" style="fill:gray;stroke:black;stroke-width:1.0"/>
<circle cx="256" cy="311" r="7.0" style="fill:gray;stroke:black;stroke-width:1.0"/>
<circle cx="54" cy="194" r="7.0" style="fill:gray;stroke:black;stroke-width:1.0"/>
<circle cx="56" cy="76" r="7.0" style="fill:gray;stroke:black;stroke-width:1.0"/>
<circle cx="110" cy="65" r="7.0" style="fill:gray;stroke:black;stroke-width:1.0"/>
<circle cx="247" cy="106" r="7.0" style="fill:gray;stroke:black;stroke-width:1.0"/>
<circle cx="217" cy="75" r="7.0" style="fill:gray;stroke:black;stroke-width:1.0"/>
<circle cx="388" cy="226" r="7.0" style="fill:gray;stroke:black;stroke-width:1.0"/>
<circle cx="104" cy="116" r="7.0" style="fill:gray;stroke:black;stroke-width:1.0"/>
<circle cx="21" cy="184" r="7.0" style="fill:gray;stroke:black;stroke-width:1.0"/>
<circle cx="312" cy="246" r="7.0" style="fill:gray;stroke:black;stroke-width:1.0"/>
<circle cx="333" cy="263" r="7.0" style="fill:gray;stroke:black;stroke-width:1.0"/>
<circle cx="164" cy="254" r="7.0" style="fill:gray;stroke:black;stroke-width:1.0"/>
<circle cx="83" cy="136" r="7.0" style="fill:gray;stroke:black;stroke-width:1.0"/>
<circle cx="71" cy="88" r="7.0" style="fill:gray;stroke:black;stroke-width:1.0"/>
<circle cx="255" cy="228" r="7.0" style="fill:gray;stroke:black;stroke-width:1.0"/>
<circle cx="135" cy="105" r="7.0" style="fill:gray;stroke:black;stroke-width:1.0"/>
<circle cx="209" cy="194" r="7.0" style="fill:gray;stroke:black;stroke-width:1.0"/>
<circle cx="284" cy="281" r="7.0" style="fill:gray;stroke:black;stroke-width:1.0"/>
<circle cx="322" cy="68" r="7.0" style="fill:gray;stroke:black;stroke-width:1.0"/>
<circle cx="399" cy="185" r="7.0" style="fill:gray;stroke:black;stroke-width:1.0"/>
<circle cx="411" cy="114" r="7.0" style="fill:gray;stroke:black;stroke-width:1.0"/>
<circle cx="420" cy="221" r="7.0" style="fill:gray;stroke:black;stroke-width:1.0"/>
<circle cx="408" cy="119" r="7.0" style="fill:gray;stroke:black;stroke-width:1.0"/>
<circle cx="216" cy="83" r="7.0" style="fill:gray;stroke:black;stroke-width:1.0"/>
<circle cx="110" cy="283" r="7.0" style="fill:gray;stroke:black;stroke-width:1.0"/>
<circle cx="251" cy="186" r="7.0" style="fill:gray;stroke:black;stroke-width:1.0"/>
<circle cx="169" cy="35" r="7.0" style="fill:gray;stroke:black;stroke-width:1.0"/>
<circle cx="160" cy="298" r="7.0" style="fill:gray;stroke:black;stroke-width:1.0"/>
<circle cx="368" cy="113" r="7.0" style="fill:gray;stroke:black;stroke-width:1.0"/>
<circle cx="367" cy="128" r="7.0" style="fill:gray;stroke:black;stroke-width:1.0"/>
<circle cx="121" cy="197" r="7.0" style="fill:gray;stroke:black;stroke-width:1.0"/>
<circle cx="183" cy="47" r="7.0" style="fill:gray;stroke:black;stroke-width:1.0"/>
<circle cx="293" cy="139" r="7.0" style="fill:gray;stroke:black;stroke-width:1.0"/>
<circle cx="88" cy="175" r="7.0" style="fill:gray;stroke:black;stroke-width:1.0"/>
<circle cx="197" cy="20" r="7.0" style="fill:gray;stroke:black;stroke-width:1.0"/>
<circle cx="100" cy="299" r="7.0" style="fill:gray;stroke:black;stroke-width:1.0"/>
<circle cx="297" cy="278" r="7.0" style="fill:gray;stroke:black;stroke-width:1.0"/>
<circle cx="101" cy="241" r="7.0" style="fill:gray;stroke:black;stroke-width:1.0"/>
<circle cx="116" cy="42" r="7.0" style="fill:gray;stroke:black;stroke-width:1.0"/>
<circle cx="348" cy="196" r="7.0" style="fill:gray;stroke:black;stroke-width:1.0"/>
<circle cx="96" cy="60" r="7.0" style="fill:gray;stroke:black;stroke-width:1.0"/>
<circle cx="40" cy="213" r="7.0" style="fill:gray;stroke:black;stroke-width:1.0"/>
<circle cx="32" cy="160" r="7.0" style="fill:gray;stroke:black;stroke-width:1.0"/>
<circle cx="177" cy="166" r="7.0" style="fill:gray;stroke:black;stroke-width:1.0"/>
<circle cx="57" cy="83" r="7.0" style="fill:gray;stroke:black;stroke-width:1.0"/>
<circle cx="287" cy="87" r="7.0" style="fill:gray;stroke:black;stroke-width:1.0"/>
<circle cx="162" cy="173" r="7.0" style="fill:gray;stroke:black;stroke-width:1.0"/>
<circle cx="130" cy="220" r="7.0" style="fill:gray;stroke:black;stroke-width:1.0"/>
<circle cx="210" cy="249" r="7.0" style="fill:gray;stroke:black;stroke-width:1.0"/>
<circle cx="308" cy="215" r="7.0" style="fill:gray;stroke:black;stroke-width:1.0"/>
<circle cx="71" cy="105" r="7.0" style="fill:gray;stroke:black;stroke-width:1.0"/>
<circle cx="214" cy="57" r="7.0" style="fill:gray;stroke:black;stroke-width:1.0"/>
<circle cx="101" cy="172" r="7.0" style="fill:gray;stroke:black;stroke-width:1.0"/>
<circle cx="338" cy="95" r="7.0" style="fill:gray;stroke:black;stroke-width:1.0"/>
<circle cx="352" cy="65" r="7.0" style="fill:gray;stroke:black;stroke-width:1.0"/>
<circle cx="323" cy="52" r="7.0" style="fill:gray;stroke:black;stroke-width:1.0"/>
<circle cx="237" cy="121" r="7.0" style="fill:gray;stroke:black;stroke-width:1.0"/>
<circle cx="268" cy="61" r="7.0" style="fill:gray;stroke:black;stroke-width:1.0"/>
<circle cx="176" cy="244" r="7.0" style="fill:gray;stroke:black;stroke-width:1.0"/>
<circle cx="364" cy="63" r="7.0" style="fill:gray;stroke:black;stroke-width:1.0"/>
<circle cx="359" cy="150" r="7.0" style="fill:gray;stroke:black;stroke-width:1.0"/>
<circle cx="182" cy="244" r="7.0" style="fill:gray;stroke:black;stroke-width:1.0"/>
<circle cx="196" cy="259" r="7.0" style="fill:gray;stroke:black;stroke-width:1.0"/>
<circle cx="32" cy="182" r="7.0" style="fill:gray;stroke:black;stroke-width:1.0"/>
<circle cx="200" cy="320" r="7.0" style="fill:gray;stroke:black;stroke-width:1.0"/>
<circle cx="354" cy="98" r="7.0" style="fill:gray;stroke:black;stroke-width:1.0"/>
<circle cx="193" cy="282" r="7.0" style="fill:gray;stroke:black;stroke-width:1.0"/>
<circle cx="97" cy="193" r="7.0" style="fill:gray;stroke:black;stroke-width:1.0"/>
<circle cx="330" cy="105" r="7.0" style="fill:gray;stroke:black;stroke-width:1.0"/>
<circle cx="369" cy="257" r="7.0" style="fill:gray;stroke:black;stroke-width:1.0"/>
<circle cx="77" cy="250" r="7.0" style="fill:gray;stroke:black;stroke-width:1.0"/>
<circle cx="248" cy="293" r="7.0" style="fill:gray;stroke:black;stroke-width:1.0"/>
<circle cx="238" cy="269" r="7.0" style="fill:gray;stroke:black;stroke-width:1.0"/>
<circle cx="350" cy="235" r="7.0" style="fill:gray;stroke:black;stroke-width:1.0"/>
<circle cx="96" cy="153" r="7.0" style="fill:gray;stroke:black;stroke-width:1.0"/>
<circle cx="203" cy="299" r="7.0" style="fill:gray;stroke:black;stroke-width:1.0"/>
<text text-anchor="start" x="165" y="131" font-size="12">A</text><text text-anchor="start" x="204" y="152" font-size="12">AA</text><text text-anchor="start" x="30" y="206" font-size="12">AD</text><text text-anchor="start" x="166" y="67" font-size="12">AJ</text><text text-anchor="start" x="384" y="265" font-size="12">AV</text><text text-anchor="start" x="411" y="224" font-size="12">AX</text><text text-anchor="start" x="266" y="311" font-size="12">AZ</text><text text-anchor="start" x="64" y="194" font-size="12">BK</text><text text-anchor="start" x="66" y="76" font-size="12">C</text><text text-anchor="start" x="120" y="65" font-size="12">CG</text><text text-anchor="start" x="257" y="106" font-size="12">D</text><text text-anchor="start" x="227" y="75" font-size="12">DZ</text><text text-anchor="start" x="398" y="226" font-size="12">E</text><text text-anchor="start" x="114" y="116" font-size="12">EI</text><text text-anchor="start" x="31" y="184" font-size="12">EQ</text><text text-anchor="start" x="322" y="246" font-size="12">ER</text><text text-anchor="start" x="343" y="263" font-size="12">ET</text><text text-anchor="start" x="174" y="254" font-size="12">EU</text><text text-anchor="start" x="93" y="136" font-size="12">F</text><text text-anchor="start" x="81" y="88" font-size="12">FF</text><text text-anchor="start" x="265" y="228" font-size="12">FR</text><text text-anchor="start" x="145" y="105" font-size="12">FV</text><text text-anchor="start" x="219" y="194" font-size="12">G</text><text text-anchor="start" x="294" y="281" font-size="12">GJ</text><text text-anchor="start" x="332" y="68" font-size="12">GQ</text><text text-anchor="start" x="409" y="185" font-size="12">H</text><text text-anchor="start" x="421" y="114" font-size="12">HF</text><text text-anchor="start" x="430" y="221" font-size="12">HP</text><text text-anchor="start" x="418" y="119" font-size="12">JI</text><text text-anchor="start" x="226" y="83" font-size="12">JW</text><text text-anchor="start" x="120" y="283" font-size="12">K</text><text text-anchor="start" x="261" y="186" font-size="12">KU</text><text text-anchor="start" x="179" y="35" font-size="12">KV</text><text text-anchor="start" x="170" y="298" font-size="12">KX</text><text text-anchor="start" x="378" y="113" font-size="12">L</text><text text-anchor="start" x="377" y="128" font-size="12">LM</text><text text-anchor="start" x="131" y="197" font-size="12">LN</text><text text-anchor="start" x="193" y="47" font-size="12">M</text><text text-anchor="start" x="303" y="139" font-size="12">MF</text><text text-anchor="start" x="98" y="175" font-size="12">MK</text><text text-anchor="start" x="207" y="20" font-size="12">O</text><text text-anchor="start" x="110" y="299" font-size="12">OF</text><text text-anchor="start" x="307" y="278" font-size="12">P</text><text text-anchor="start" x="111" y="241" font-size="12">PI</text><text text-anchor="start" x="126" y="42" font-size="12">Q</text><text text-anchor="start" x="358" y="196" font-size="12">QO</text><text text-anchor="start" x="106" y="60" font-size="12">QX</text><text text-anchor="start" x="50" y="213" font-size="12">R</text><text text-anchor="start" x="42" y="160" font-size="12">RC</text><text text-anchor="start" x="187" y="166" font-size="12">RO</text><text text-anchor="start" x="67" y="83" font-size="12">RV</text><text text-anchor="start" x="297" y="87" font-size="12">SU</text><text text-anchor="start" x="172" y="173" font-size="12">T</text><text text-anchor="start" x="140" y="220" font-size="12">TC</text><text text-anchor="start" x="220" y="249" font-size="12">TF</text><text text-anchor="start" x="318" y="215" font-size="12">TG</text><text text-anchor="start" x="81" y="105" font-size="12">TI</text><text text-anchor="start" x="224" y="57" font-size="12">TR</text><text text-anchor="start" x="111" y="172" font-size="12">TX</text><text text-anchor="start" x="348" y="95" font-size="12">UJ</text><text text-anchor="start" x="362" y="65" font-size="12">V</text><text text-anchor="start" x="333" y="52" font-size="12">VD</text><text text-anchor="start" x="247" y="121" font-size="12">VJ</text><text text-anchor="start" x="278" y="61" font-size="12">VO</text><text text-anchor="start" x="186" y="244" font-size="12">VQ</text><text text-anchor="start" x="374" y="63" font-size="12">VS</text><text text-anchor="start" x="369" y="150" font-size="12">VY</text><text text-anchor="start" x="192" y="244" font-size="12">W</text><text text-anchor="start" x="206" y="259" font-size="12">WI</text><text text-anchor="start" x="42" y="182" font-size="12">WR</text><text text-anchor="start" x="210" y="320" font-size="12">X</text><text text-anchor="start" x="364" y="98" font-size="12">XL</text><text text-anchor="start" x="203" y="282" font-size="12">XO</text><text text-anchor="start" x="107" y="193" font-size="12">Y</text><text text-anchor="start" x="340" y="105" font-size="12">YI</text><text text-anchor="start" x="379" y="257" font-size="12">YJ</text><text text-anchor="start" x="87" y="250" font-size="12">YW</text><text text-anchor="start" x="258" y="293" font-size="12">Z</text><text text-anchor="start" x="248" y="269" font-size="12">ZJ</text><text text-anchor="start" x="360" y="235" font-size="12">ZK</text><text text-anchor="start" x="106" y="153" font-size="12">ZL</text><text text-anchor="start" x="213" y="299" font-size="12">ZR</text></svg>