<svg xmlns="http://www.w3.org/2000/svg" width="464.0" height="340">
<path stroke-width="0.5" stroke="gray" d="M 295 84 337 123"/>
<path stroke-width="0.5" stroke="gray" d="M 145 74 186 20"/>
<path stroke-width="20.0" stroke="gray" d="M 184 235 127 212"/>
<path stroke-width="0.5" stroke="gray" d="M 184 235 277 207"/>
<path stroke-width="0.5" stroke="gray" d="M 114 129 138 65"/>
<path stroke-width="0.5" stroke="gray" d="M 114 129 139 123"/>
<path stroke-width="0.5" stroke="gray" d="M 114 129 127 212"/>
<path stroke-width="0.5" stroke="gray" d="M 376 196 295 84"/>
<path stroke-width="0.5" stroke="gray" d="M 376 196 401 188"/>
<path stroke-width="20.0" stroke="gray" d="M 376 196 351 275"/>
<path stroke-width="0.5" stroke="gray" d="M 67 205 46 184"/>
<path stroke-width="0.5" stroke="gray" d="M 67 205 83 205"/>
<path stroke-width="0.5" stroke="gray" d="M 67 205 130 200"/>
<path stroke-width="0.5" stroke="gray" d="M 138 83 295 84"/>
<path stroke-width="0.5" stroke="gray" d="M 138 83 153 99"/>
<path stroke-width="20.0" stroke="gray" d="M 138 83 54 126"/>
<path stroke-width="0.5" stroke="gray" d="M 229 193 190 91"/>
<path stroke-width="0.5" stroke="gray" d="M 229 193 193 292"/>
<path stroke-width="0.5" stroke="gray" d="M 229 193 310 175"/>
<path stroke-width="20.0" stroke="gray" d="M 193 147 248 225"/>
<path stroke-width="0.5" stroke="gray" d="M 193 147 53 155"/>
<path stroke-width="0.5" stroke="gray" d="M 193 147 259 61"/>
<path stroke-width="0.5" stroke="gray" d="M 53 155 99 127"/>
<path stroke-width="0.5" stroke="gray" d="M 53 155 193 147"/>
<path stroke-width="0.5" stroke="gray" d="M 53 155 54 126"/>
<path stroke-width="0.5" stroke="gray" d="M 53 155 20 167"/>
<path stroke-width="0.5" stroke="gray" d="M 53 155 33 195"/>
<path stroke-width="0.5" stroke="gray" d="M 54 126 99 127"/>
<path stroke-width="0.5" stroke="gray" d="M 145 74 130 200"/>
<path stroke-width="0.5" stroke="gray" d="M 145 74 190 91"/>
<path stroke-width="0.5" stroke="gray" d="M 145 74 138 65"/>
<path stroke-width="0.5" stroke="gray" d="M 199 230 248 225"/>
<path stroke-width="0.5" stroke="gray" d="M 205 64 195 56"/>
<path stroke-width="0.5" stroke="gray" d="M 163 114 139 123"/>
<path stroke-width="0.5" stroke="gray" d="M 392 70 420 114"/>
<path stroke-width="0.5" stroke="gray" d="M 392 70 349 55"/>
<path stroke-width="0.5" stroke="gray" d="M 376 133 295 84"/>
<path stroke-width="20.0" stroke="gray" d="M 376 133 337 123"/>
<path stroke-width="20.0" stroke="gray" d="M 376 133 392 204"/>
<path stroke-width="20.0" stroke="gray" d="M 376 133 325 258"/>
<path stroke-width="0.5" stroke="gray" d="M 376 133 349 55"/>
<path stroke-width="0.5" stroke="gray" d="M 102 183 83 205"/>
<path stroke-width="0.5" stroke="gray" d="M 353 164 374 162"/>
<path stroke-width="0.5" stroke="gray" d="M 353 164 348 231"/>
<path stroke-width="20.0" stroke="gray" d="M 353 164 277 135"/>
<path stroke-width="20.0" stroke="gray" d="M 54 126 128 237"/>
<path stroke-width="20.0" stroke="gray" d="M 63 137 153 99"/>
<path stroke-width="0.5" stroke="gray" d="M 277 207 296 180"/>
<path stroke-width="0.5" stroke="gray" d="M 277 207 184 235"/>
<path stroke-width="0.5" stroke="gray" d="M 277 207 310 175"/>
<path stroke-width="0.5" stroke="gray" d="M 354 105 295 84"/>
<path stroke-width="20.0" stroke="gray" d="M 354 105 339 109"/>
<path stroke-width="0.5" stroke="gray" d="M 354 105 310 175"/>
<path stroke-width="20.0" stroke="gray" d="M 186 20 241 21"/>
<path stroke-width="0.5" stroke="gray" d="M 186 20 145 74"/>
<path stroke-width="0.5" stroke="gray" d="M 83 133 46 184"/>
<path stroke-width="0.5" stroke="gray" d="M 83 133 83 205"/>
<path stroke-width="20.0" stroke="gray" d="M 83 133 209 48"/>
<path stroke-width="20.0" stroke="gray" d="M 199 230 83 205"/>
<path stroke-width="0.5" stroke="gray" d="M 199 230 224 244"/>
<path stroke-width="0.5" stroke="gray" d="M 63 137 46 184"/>
<path stroke-width="20.0" stroke="gray" d="M 54 126 138 83"/>
<path stroke-width="0.5" stroke="gray" d="M 54 126 53 155"/>
<path stroke-width="0.5" stroke="gray" d="M 54 126 113 52"/>
<path stroke-width="0.5" stroke="gray" d="M 183 319 232 302"/>
<path stroke-width="0.5" stroke="gray" d="M 230 151 339 109"/>
<path stroke-width="0.5" stroke="gray" d="M 230 151 127 212"/>
<path stroke-width="0.5" stroke="gray" d="M 230 151 189 125"/>
<path stroke-width="20.0" stroke="gray" d="M 288 199 272 110"/>
<path stroke-width="0.5" stroke="gray" d="M 288 199 224 244"/>
<path stroke-width="0.5" stroke="gray" d="M 288 199 248 225"/>
<path stroke-width="0.5" stroke="gray" d="M 387 239 374 162"/>
<path stroke-width="20.0" stroke="gray" d="M 387 239 351 275"/>
<path stroke-width="0.5" stroke="gray" d="M 169 132 139 123"/>
<path stroke-width="0.5" stroke="gray" d="M 169 132 189 125"/>
<path stroke-width="0.5" stroke="gray" d="M 310 291 300 311"/>
<path stroke-width="0.5" stroke="gray" d="M 310 291 348 231"/>
<path stroke-width="0.5" stroke="gray" d="M 183 319 190 317"/>
<path stroke-width="0.5" stroke="gray" d="M 310 291 351 275"/>
<path stroke-width="0.5" stroke="gray" d="M 310 291 190 317"/>
<path stroke-width="0.5" stroke="gray" d="M 232 315 351 275"/>
<path stroke-width="0.5" stroke="gray" d="M 232 315 193 292"/>
<path stroke-width="0.5" stroke="gray" d="M 232 315 190 317"/>
<path stroke-width="0.5" stroke="gray" d="M 252 82 374 162"/>
<path stroke-width="20.0" stroke="gray" d="M 252 82 138 65"/>
<path stroke-width="0.5" stroke="gray" d="M 102 293 105 298"/>
<path stroke-width="0.5" stroke="gray" d="M 102 293 60 240"/>
<path stroke-width="0.5" stroke="gray" d="M 102 293 190 317"/>
<path stroke-width="0.5" stroke="gray" d="M 232 302 300 311"/>
<path stroke-width="20.0" stroke="gray" d="M 232 302 253 305"/>
<path stroke-width="0.5" stroke="gray" d="M 232 302 325 258"/>
<path stroke-width="20.0" stroke="gray" d="M 232 302 130 200"/>
<path stroke-width="0.5" stroke="gray" d="M 310 291 325 258"/>
<path stroke-width="0.5" stroke="gray" d="M 189 125 169 132"/>
<path stroke-width="0.5" stroke="gray" d="M 183 319 193 292"/>
<path stroke-width="0.5" stroke="gray" d="M 33 195 53 155"/>
<path stroke-width="0.5" stroke="gray" d="M 54 126 20 167"/>
<path stroke-width="0.5" stroke="gray" d="M 259 61 295 84"/>
<path stroke-width="0.5" stroke="gray" d="M 259 61 241 21"/>
<path stroke-width="0.5" stroke="gray" d="M 259 61 193 147"/>
<path stroke-width="0.5" stroke="gray" d="M 113 52 162 24"/>
<path stroke-width="0.5" stroke="gray" d="M 113 52 203 49"/>
<path stroke-width="0.5" stroke="gray" d="M 113 52 54 126"/>
<path stroke-width="20.0" stroke="gray" d="M 349 55 241 21"/>
<path stroke-width="0.5" stroke="gray" d="M 349 55 392 70"/>
<path stroke-width="0.5" stroke="gray" d="M 349 55 376 133"/>
<path stroke-width="0.5" stroke="gray" d="M 20 167 53 155"/>
<path stroke-width="0.5" stroke="gray" d="M 20 167 54 126"/>
<path stroke-width="0.5" stroke="gray" d="M 20 167 33 195"/>
<path stroke-width="0.5" stroke="gray" d="M 33 195 20 167"/>
<path stroke-width="20.0" stroke="gray" d="M 198 249 127 212"/>
<path stroke-width="0.5" stroke="gray" d="M 198 249 248 225"/>
<path stroke-width="0.5" stroke="gray" d="M 193 292 229 193"/>
<path stroke-width="0.5" stroke="gray" d="M 193 292 183 319"/>
<path stroke-width="0.5" stroke="gray" d="M 193 292 232 315"/>
<path stroke-width="0.5" stroke="gray" d="M 190 317 183 319"/>
<path stroke-width="0.5" stroke="gray" d="M 190 317 310 291"/>
<path stroke-width="0.5" stroke="gray" d="M 190 317 232 315"/>
<path stroke-width="0.5" stroke="gray" d="M 190 317 102 293"/>
<path stroke-width="0.5" stroke="gray" d="M 310 175 277 207"/>
<path stroke-width="0.5" stroke="gray" d="M 310 175 354 105"/>
<path stroke-width="0.5" stroke="gray" d="M 310 175 229 193"/>
<path stroke-width="0.5" stroke="gray" d="M 244 320 232 302"/>
<path stroke-width="20.0" stroke="gray" d="M 33 195 127 212"/>
<path stroke-width="0.5" stroke="gray" d="M 198 249 224 244"/>
<path stroke-width="0.5" stroke="gray" d="M 189 125 230 151"/>
<path stroke-width="0.5" stroke="gray" d="M 189 125 153 99"/>
<path stroke-width="20.0" stroke="gray" d="M 277 135 353 164"/>
<path stroke-width="0.5" stroke="gray" d="M 46 184 60 240"/>
<path stroke-width="0.5" stroke="gray" d="M 46 184 63 137"/>
<path stroke-width="0.5" stroke="gray" d="M 46 184 83 133"/>
<path stroke-width="0.5" stroke="gray" d="M 46 184 67 205"/>
<path stroke-width="0.5" stroke="gray" d="M 83 205 60 240"/>
<path stroke-width="0.5" stroke="gray" d="M 83 205 102 183"/>
<path stroke-width="0.5" stroke="gray" d="M 83 205 83 133"/>
<path stroke-width="20.0" stroke="gray" d="M 83 205 199 230"/>
<path stroke-width="0.5" stroke="gray" d="M 83 205 67 205"/>
<path stroke-width="0.5" stroke="gray" d="M 162 24 241 21"/>
<path stroke-width="0.5" stroke="gray" d="M 162 24 113 52"/>
<path stroke-width="0.5" stroke="gray" d="M 203 49 295 84"/>
<path stroke-width="0.5" stroke="gray" d="M 203 49 113 52"/>
<path stroke-width="20.0" stroke="gray" d="M 337 123 376 133"/>
<path stroke-width="0.5" stroke="gray" d="M 374 162 417 173"/>
<path stroke-width="0.5" stroke="gray" d="M 374 162 387 239"/>
<path stroke-width="0.5" stroke="gray" d="M 374 162 252 82"/>
<path stroke-width="0.5" stroke="gray" d="M 209 48 295 84"/>
<path stroke-width="0.5" stroke="gray" d="M 209 48 241 21"/>
<path stroke-width="20.0" stroke="gray" d="M 209 48 83 133"/>
<path stroke-width="20.0" stroke="gray" d="M 339 109 354 105"/>
<path stroke-width="0.5" stroke="gray" d="M 339 109 230 151"/>
<path stroke-width="0.5" stroke="gray" d="M 348 231 353 164"/>
<path stroke-width="0.5" stroke="gray" d="M 348 231 310 291"/>
<path stroke-width="0.5" stroke="gray" d="M 253 305 267 255"/>
<path stroke-width="20.0" stroke="gray" d="M 253 305 232 302"/>
<path stroke-width="0.5" stroke="gray" d="M 392 204 355 165"/>
<path stroke-width="0.5" stroke="gray" d="M 392 204 351 275"/>
<path stroke-width="0.5" stroke="gray" d="M 374 162 353 164"/>
<path stroke-width="20.0" stroke="gray" d="M 392 204 376 133"/>
<path stroke-width="0.5" stroke="gray" d="M 337 123 296 180"/>
<path stroke-width="0.5" stroke="gray" d="M 300 311 232 302"/>
<path stroke-width="0.5" stroke="gray" d="M 295 84 203 49"/>
<path stroke-width="0.5" stroke="gray" d="M 295 84 209 48"/>
<path stroke-width="0.5" stroke="gray" d="M 295 84 272 110"/>
<path stroke-width="0.5" stroke="gray" d="M 295 84 376 133"/>
<path stroke-width="0.5" stroke="gray" d="M 295 84 354 105"/>
<path stroke-width="0.5" stroke="gray" d="M 295 84 376 196"/>
<path stroke-width="0.5" stroke="gray" d="M 295 84 138 83"/>
<path stroke-width="0.5" stroke="gray" d="M 295 84 259 61"/>
<path stroke-width="0.5" stroke="gray" d="M 241 21 162 24"/>
<path stroke-width="0.5" stroke="gray" d="M 241 21 209 48"/>
<path stroke-width="20.0" stroke="gray" d="M 241 21 186 20"/>
<path stroke-width="0.5" stroke="gray" d="M 241 21 259 61"/>
<path stroke-width="20.0" stroke="gray" d="M 241 21 349 55"/>
<path stroke-width="0.5" stroke="gray" d="M 337 123 295 84"/>
<path stroke-width="0.5" stroke="gray" d="M 296 180 337 123"/>
<path stroke-width="0.5" stroke="gray" d="M 153 99 272 110"/>
<path stroke-width="0.5" stroke="gray" d="M 153 99 140 91"/>
<path stroke-width="0.5" stroke="gray" d="M 153 99 189 125"/>
<path stroke-width="20.0" stroke="gray" d="M 153 99 63 137"/>
<path stroke-width="0.5" stroke="gray" d="M 153 99 138 83"/>
<path stroke-width="20.0" stroke="gray" d="M 420 114 401 188"/>
<path stroke-width="0.5" stroke="gray" d="M 420 114 392 70"/>
<path stroke-width="20.0" stroke="gray" d="M 401 188 420 114"/>
<path stroke-width="0.5" stroke="gray" d="M 401 188 267 255"/>
<path stroke-width="0.5" stroke="gray" d="M 401 188 417 173"/>
<path stroke-width="0.5" stroke="gray" d="M 401 188 376 196"/>
<path stroke-width="20.0" stroke="gray" d="M 300 311 351 275"/>
<path stroke-width="0.5" stroke="gray" d="M 300 311 310 291"/>
<path stroke-width="0.5" stroke="gray" d="M 296 180 277 207"/>
<path stroke-width="0.5" stroke="gray" d="M 232 302 244 320"/>
<path stroke-width="0.5" stroke="gray" d="M 105 298 102 293"/>
<path stroke-width="0.5" stroke="gray" d="M 60 240 83 205"/>
<path stroke-width="0.5" stroke="gray" d="M 139 123 163 114"/>
<path stroke-width="0.5" stroke="gray" d="M 139 123 114 129"/>
<path stroke-width="0.5" stroke="gray" d="M 139 123 169 132"/>
<path stroke-width="20.0" stroke="gray" d="M 127 212 184 235"/>
<path stroke-width="0.5" stroke="gray" d="M 127 212 114 129"/>
<path stroke-width="20.0" stroke="gray" d="M 127 212 198 249"/>
<path stroke-width="20.0" stroke="gray" d="M 127 212 33 195"/>
<path stroke-width="0.5" stroke="gray" d="M 127 212 230 151"/>
<path stroke-width="20.0" stroke="gray" d="M 195 56 190 91"/>
<path stroke-width="0.5" stroke="gray" d="M 195 56 205 64"/>
<path stroke-width="20.0" stroke="gray" d="M 325 258 376 133"/>
<path stroke-width="0.5" stroke="gray" d="M 325 258 310 291"/>
<path stroke-width="0.5" stroke="gray" d="M 325 258 232 302"/>
<path stroke-width="20.0" stroke="gray" d="M 272 110 288 199"/>
<path stroke-width="0.5" stroke="gray" d="M 224 244 160 256"/>
<path stroke-width="0.5" stroke="gray" d="M 224 244 198 249"/>
<path stroke-width="0.5" stroke="gray" d="M 224 244 288 199"/>
<path stroke-width="0.5" stroke="gray" d="M 248 225 267 255"/>
<path stroke-width="0.5" stroke="gray" d="M 248 225 199 230"/>
<path stroke-width="20.0" stroke="gray" d="M 248 225 193 147"/>
<path stroke-width="0.5" stroke="gray" d="M 248 225 198 249"/>
<path stroke-width="0.5" stroke="gray" d="M 248 225 288 199"/>
<path stroke-width="0.5" stroke="gray" d="M 130 200 145 74"/>
<path stroke-width="0.5" stroke="gray" d="M 130 200 67 205"/>
<path stroke-width="20.0" stroke="gray" d="M 130 200 232 302"/>
<path stroke-width="0.5" stroke="gray" d="M 140 91 153 99"/>
<path stroke-width="0.5" stroke="gray" d="M 277 135 355 165"/>
<path stroke-width="0.5" stroke="gray" d="M 277 135 99 127"/>
<path stroke-width="0.5" stroke="gray" d="M 224 244 199 230"/>
<path stroke-width="0.5" stroke="gray" d="M 60 240 46 184"/>
<path stroke-width="0.5" stroke="gray" d="M 272 110 153 99"/>
<path stroke-width="20.0" stroke="gray" d="M 128 237 54 126"/>
<path stroke-width="0.5" stroke="gray" d="M 60 240 102 293"/>
<path stroke-width="0.5" stroke="gray" d="M 138 65 145 74"/>
<path stroke-width="0.5" stroke="gray" d="M 138 65 114 129"/>
<path stroke-width="20.0" stroke="gray" d="M 138 65 252 82"/>
<path stroke-width="20.0" stroke="gray" d="M 190 91 195 56"/>
<path stroke-width="0.5" stroke="gray" d="M 190 91 145 74"/>
<path stroke-width="0.5" stroke="gray" d="M 190 91 229 193"/>
<path stroke-width="0.5" stroke="gray" d="M 355 165 392 204"/>
<path stroke-width="0.5" stroke="gray" d="M 355 165 277 135"/>
<path stroke-width="20.0" stroke="gray" d="M 351 275 300 311"/>
<path stroke-width="0.5" stroke="gray" d="M 351 275 392 204"/>
<path stroke-width="20.0" stroke="gray" d="M 351 275 376 196"/>
<path stroke-width="20.0" stroke="gray" d="M 351 275 387 239"/>
<path stroke-width="0.5" stroke="gray" d="M 272 110 295 84"/>
<path stroke-width="0.5" stroke="gray" d="M 351 275 310 291"/>
<path stroke-width="0.5" stroke="gray" d="M 99 127 277 135"/>
<path stroke-width="0.5" stroke="gray" d="M 99 127 53 155"/>
<path stroke-width="0.5" stroke="gray" d="M 99 127 54 126"/>
<path stroke-width="0.5" stroke="gray" d="M 267 255 401 188"/>
<path stroke-width="0.5" stroke="gray" d="M 267 255 253 305"/>
<path stroke-width="0.5" stroke="gray" d="M 267 255 128 237"/>
<path stroke-width="0.5" stroke="gray" d="M 267 255 248 225"/>
<path stroke-width="0.5" stroke="gray" d="M 160 256 128 237"/>
<path stroke-width="0.5" stroke="gray" d="M 160 256 224 244"/>
<path stroke-width="0.5" stroke="gray" d="M 417 173 401 188"/>
<path stroke-width="0.5" stroke="gray" d="M 417 173 374 162"/>
<path stroke-width="0.5" stroke="gray" d="M 128 237 267 255"/>
<path stroke-width="0.5" stroke="gray" d="M 128 237 160 256"/>
<path stroke-width="0.5" stroke="gray" d="M 351 275 232 315"/>
<path stroke-width="0.5" stroke="gray" d="M 232 302 183 319"/>
<circle cx="295" cy="84" r="7.0" style="fill:gray;stroke:black;stroke-width:1.0"/>
<circle cx="241" cy="21" r="7.0" style="fill:gray;stroke:black;stroke-width:1.0"/>
<circle cx="296" cy="180" r="7.0" style="fill:gray;stroke:black;stroke-width:1.0"/>
<circle cx="153" cy="99" r="7.0" style="fill:gray;stroke:black;stroke-width:1.0"/>
<circle cx="420" cy="114" r="7.0" style="fill:gray;stroke:black;stroke-width:1.0"/>
<circle cx="401" cy="188" r="7.0" style="fill:gray;stroke:black;stroke-width:1.0"/>
<circle cx="300" cy="311" r="7.0" style="fill:gray;stroke:black;stroke-width:1.0"/>
<circle cx="337" cy="123" r="7.0" style="fill:gray;stroke:black;stroke-width:1.0"/>
<circle cx="46" cy="184" r="7.0" style="fill:gray;stroke:black;stroke-width:1.0"/>
<circle cx="83" cy="205" r="7.0" style="fill:gray;stroke:black;stroke-width:1.0"/>
<circle cx="162" cy="24" r="7.0" style="fill:gray;stroke:black;stroke-width:1.0"/>
<circle cx="203" cy="49" r="7.0" style="fill:gray;stroke:black;stroke-width:1.0"/>
<circle cx="374" cy="162" r="7.0" style="fill:gray;stroke:black;stroke-width:1.0"/>
<circle cx="209" cy="48" r="7.0" style="fill:gray;stroke:black;stroke-width:1.0"/>
<circle cx="339" cy="109" r="7.0" style="fill:gray;stroke:black;stroke-width:1.0"/>
<circle cx="348" cy="231" r="7.0" style="fill:gray;stroke:black;stroke-width:1.0"/>
<circle cx="253" cy="305" r="7.0" style="fill:gray;stroke:black;stroke-width:1.0"/>
<circle cx="392" cy="204" r="7.0" style="fill:gray;stroke:black;stroke-width:1.0"/>
<circle cx="105" cy="298" r="7.0" style="fill:gray;stroke:black;stroke-width:1.0"/>
<circle cx="60" cy="240" r="7.0" style="fill:gray;stroke:black;stroke-width:1.0"/>
<circle cx="138" cy="65" r="7.0" style="fill:gray;stroke:black;stroke-width:1.0"/>
<circle cx="190" cy="91" r="7.0" style="fill:gray;stroke:black;stroke-width:1.0"/>
<circle cx="355" cy="165" r="7.0" style="fill:gray;stroke:black;stroke-width:1.0"/>
<circle cx="351" cy="275" r="7.0" style="fill:gray;stroke:black;stroke-width:1.0"/>
<circle cx="99" cy="127" r="7.0" style="fill:gray;stroke:black;stroke-width:1.0"/>
<circle cx="267" cy="255" r="7.0" style="fill:gray;stroke:black;stroke-width:1.0"/>
<circle cx="160" cy="256" r="7.0" style="fill:gray;stroke:black;stroke-width:1.0"/>
<circle cx="417" cy="173" r="7.0" style="fill:gray;stroke:black;stroke-width:1.0"/>
<circle cx="128" cy="237" r="7.0" style="fill:gray;stroke:black;stroke-width:1.0"/>
<circle cx="272" cy="110" r="7.0" style="fill:gray;stroke:black;stroke-width:1.0"/>
<circle cx="139" cy="123" r="7.0" style="fill:gray;stroke:black;stroke-width:1.0"/>
<circle cx="127" cy="212" r="7.0" style="fill:gray;stroke:black;stroke-width:1.0"/>
<circle cx="195" cy="56" r="7.0" style="fill:gray;stroke:black;stroke-width:1.0"/>
<circle cx="325" cy="258" r="7.0" style="fill:gray;stroke:black;stroke-width:1.0"/>
<circle cx="224" cy="244" r="7.0" style="fill:gray;stroke:black;stroke-width:1.0"/>
<circle cx="248" cy="225" r="7.0" style="fill:gray;stroke:black;stroke-width:1.0"/>
<circle cx="130" cy="200" r="7.0" style="fill:gray;stroke:black;stroke-width:1.0"/>
<circle cx="140" cy="91" r="7.0" style="fill:gray;stroke:black;stroke-width:1.0"/>
<circle cx="277" cy="135" r="7.0" style="fill:gray;stroke:black;stroke-width:1.0"/>
<circle cx="189" cy="125" r="7.0" style="fill:gray;stroke:black;stroke-width:1.0"/>
<circle cx="205" cy="64" r="7.0" style="fill:gray;stroke:black;stroke-width:1.0"/>
<circle cx="163" cy="114" r="7.0" style="fill:gray;stroke:black;stroke-width:1.0"/>
<circle cx="392" cy="70" r="7.0" style="fill:gray;stroke:black;stroke-width:1.0"/>
<circle cx="376" cy="133" r="7.0" style="fill:gray;stroke:black;stroke-width:1.0"/>
<circle cx="102" cy="183" r="7.0" style="fill:gray;stroke:black;stroke-width:1.0"/>
<circle cx="353" cy="164" r="7.0" style="fill:gray;stroke:black;stroke-width:1.0"/>
<circle cx="63" cy="137" r="7.0" style="fill:gray;stroke:black;stroke-width:1.0"/>
<circle cx="277" cy="207" r="7.0" style="fill:gray;stroke:black;stroke-width:1.0"/>
<circle cx="354" cy="105" r="7.0" style="fill:gray;stroke:black;stroke-width:1.0"/>
<circle cx="186" cy="20" r="7.0" style="fill:gray;stroke:black;stroke-width:1.0"/>
<circle cx="83" cy="133" r="7.0" style="fill:gray;stroke:black;stroke-width:1.0"/>
<circle cx="199" cy="230" r="7.0" style="fill:gray;stroke:black;stroke-width:1.0"/>
<circle cx="145" cy="74" r="7.0" style="fill:gray;stroke:black;stroke-width:1.0"/>
<circle cx="184" cy="235" r="7.0" style="fill:gray;stroke:black;stroke-width:1.0"/>
<circle cx="114" cy="129" r="7.0" style="fill:gray;stroke:black;stroke-width:1.0"/>
<circle cx="376" cy="196" r="7.0" style="fill:gray;stroke:black;stroke-width:1.0"/>
<circle cx="67" cy="205" r="7.0" style="fill:gray;stroke:black;stroke-width:1.0"/>
<circle cx="138" cy="83" r="7.0" style="fill:gray;stroke:black;stroke-width:1.0"/>
<circle cx="229" cy="193" r="7.0" style="fill:gray;stroke:black;stroke-width:1.0"/>
<circle cx="193" cy="147" r="7.0" style="fill:gray;stroke:black;stroke-width:1.0"/>
<circle cx="53" cy="155" r="7.0" style="fill:gray;stroke:black;stroke-width:1.0"/>
<circle cx="54" cy="126" r="7.0" style="fill:gray;stroke:black;stroke-width:1.0"/>
<circle cx="259" cy="61" r="7.0" style="fill:gray;stroke:black;stroke-width:1.0"/>
<circle cx="113" cy="52" r="7.0" style="fill:gray;stroke:black;stroke-width:1.0"/>
<circle cx="349" cy="55" r="7.0" style="fill:gray;stroke:black;stroke-width:1.0"/>
<circle cx="20" cy="167" r="7.0" style="fill:gray;stroke:black;stroke-width:1.0"/>
<circle cx="198" cy="249" r="7.0" style="fill:gray;stroke:black;stroke-width:1.0"/>
<circle cx="193" cy="292" r="7.0" style="fill:gray;stroke:black;stroke-width:1.0"/>
<circle cx="190" cy="317" r="7.0" style="fill:gray;stroke:black;stroke-width:1.0"/>
<circle cx="310" cy="175" r="7.0" style="fill:gray;stroke:black;stroke-width:1.0"/>
<circle cx="244" cy="320" r="7.0" style="fill:gray;stroke:black;stroke-width:1.0"/>
<circle cx="33" cy="195" r="7.0" style="fill:gray;stroke:black;stroke-width:1.0"/>
<circle cx="183" cy="319" r="7.0" style="fill:gray;stroke:black;stroke-width:1.0"/>
<circle cx="230" cy="151" r="7.0" style="fill:gray;stroke:black;stroke-width:1.0"/>
<circle cx="288" cy="199" r="7.0" style="fill:gray;stroke:black;stroke-width:1.0"/>
<circle cx="387" cy="239" r="7.0" style="fill:gray;stroke:black;stroke-width:1.0"/>
<circle cx="169" cy="132" r="7.0" style="fill:gray;stroke:black;stroke-width:1.0"/>
<circle cx="310" cy="291" r="7.0" style="fill:gray;stroke:black;stroke-width:1.0"/>
<circle cx="232" cy="315" r="7.0" style="fill:gray;stroke:black;stroke-width:1.0"/>
<circle cx="252" cy="82" r="7.0" style="fill:gray;stroke:black;stroke-width:1.0"/>
<circle cx="102" cy="293" r="7.0" style="fill:gray;stroke:black;stroke-width:1.0"/>
<circle cx="232" cy="302" r="7.0" style="fill:gray;stroke:black;stroke-width:1.0"/>
<text text-anchor="start" x="305" y="84" font-size="12">A</text><text text-anchor="start" x="251" y="21" font-size="12">AA</text><text text-anchor="start" x="306" y="180" font-size="12">AD</text><text text-anchor="start" x="163" y="99" font-size="12">AJ</text><text text-anchor="start" x="430" y="114" font-size="12">AV</text><text text-anchor="start" x="411" y="188" font-size="12">AX</text><text text-anchor="start" x="310" y="311" font-size="12">AZ</text><text text-anchor="start" x="347" y="123" font-size="12">BK</text><text text-anchor="start" x="56" y="184" font-size="12">C</text><text text-anchor="start" x="93" y="205" font-size="12">CG</text><text text-anchor="start" x="172" y="24" font-size="12">D</text><text text-anchor="start" x="213" y="49" font-size="12">DZ</text><text text-anchor="start" x="384" y="162" font-size="12">E</text><text text-anchor="start" x="219" y="48" font-size="12">EI</text><text text-anchor="start" x="349" y="109" font-size="12">EQ</text><text text-anchor="start" x="358" y="231" font-size="12">ER</text><text text-anchor="start" x="263" y="305" font-size="12">ET</text><text text-anchor="start" x="402" y="204" font-size="12">EU</text><text text-anchor="start" x="115" y="298" font-size="12">F</text><text text-anchor="start" x="70" y="240" font-size="12">FF</text><text text-anchor="start" x="148" y="65" font-size="12">FR</text><text text-anchor="start" x="200" y="91" font-size="12">FV</text><text text-anchor="start" x="365" y="165" font-size="12">G</text><text text-anchor="start" x="361" y="275" font-size="12">GJ</text><text text-anchor="start" x="109" y="127" font-size="12">GQ</text><text text-anchor="start" x="277" y="255" font-size="12">H</text><text text-anchor="start" x="170" y="256" font-size="12">HF</text><text text-anchor="start" x="427" y="173" font-size="12">HP</text><text text-anchor="start" x="138" y="237" font-size="12">JI</text><text text-anchor="start" x="282" y="110" font-size="12">JW</text><text text-anchor="start" x="149" y="123" font-size="12">K</text><text text-anchor="start" x="137" y="212" font-size="12">KU</text><text text-anchor="start" x="205" y="56" font-size="12">KV</text><text text-anchor="start" x="335" y="258" font-size="12">KX</text><text text-anchor="start" x="234" y="244" font-size="12">L</text><text text-anchor="start" x="258" y="225" font-size="12">LM</text><text text-anchor="start" x="140" y="200" font-size="12">LN</text><text text-anchor="start" x="150" y="91" font-size="12">M</text><text text-anchor="start" x="287" y="135" font-size="12">MF</text><text text-anchor="start" x="199" y="125" font-size="12">MK</text><text text-anchor="start" x="215" y="64" font-size="12">O</text><text text-anchor="start" x="173" y="114" font-size="12">OF</text><text text-anchor="start" x="402" y="70" font-size="12">P</text><text text-anchor="start" x="386" y="133" font-size="12">PI</text><text text-anchor="start" x="112" y="183" font-size="12">Q</text><text text-anchor="start" x="363" y="164" font-size="12">QO</text><text text-anchor="start" x="73" y="137" font-size="12">QX</text><text text-anchor="start" x="287" y="207" font-size="12">R</text><text text-anchor="start" x="364" y="105" font-size="12">RC</text><text text-anchor="start" x="196" y="20" font-size="12">RO</text><text text-anchor="start" x="93" y="133" font-size="12">RV</text><text text-anchor="start" x="209" y="230" font-size="12">SU</text><text text-anchor="start" x="155" y="74" font-size="12">T</text><text text-anchor="start" x="194" y="235" font-size="12">TC</text><text text-anchor="start" x="124" y="129" font-size="12">TF</text><text text-anchor="start" x="386" y="196" font-size="12">TG</text><text text-anchor="start" x="77" y="205" font-size="12">TI</text><text text-anchor="start" x="148" y="83" font-size="12">TR</text><text text-anchor="start" x="239" y="193" font-size="12">TX</text><text text-anchor="start" x="203" y="147" font-size="12">UJ</text><text text-anchor="start" x="63" y="155" font-size="12">V</text><text text-anchor="start" x="64" y="126" font-size="12">VD</text><text text-anchor="start" x="269" y="61" font-size="12">VJ</text><text text-anchor="start" x="123" y="52" font-size="12">VO</text><text text-anchor="start" x="359" y="55" font-size="12">VQ</text><text text-anchor="start" x="30" y="167" font-size="12">VS</text><text text-anchor="start" x="208" y="249" font-size="12">VY</text><text text-anchor="start" x="203" y="292" font-size="12">W</text><text text-anchor="start" x="200" y="317" font-size="12">WI</text><text text-anchor="start" x="320" y="175" font-size="12">WR</text><text text-anchor="start" x="254" y="320" font-size="12">X</text><text text-anchor="start" x="43" y="195" font-size="12">XL</text><text text-anchor="start" x="193" y="319" font-size="12">XO</text><text text-anchor="start" x="240" y="151" font-size="12">Y</text><text text-anchor="start" x="298" y="199" font-size="12">YI</text><text text-anchor="start" x="397" y="239" font-size="12">YJ</text><text text-anchor="start" x="179" y="132" font-size="12">YW</text><text text-anchor="start" x="320" y="291" font-size="12">Z</text><text text-anchor="start" x="242" y="315" font-size="12">ZJ</text><text text-anchor="start" x="262" y="82" font-size="12">ZK</text><text text-anchor="start" x="112" y="293" font-size="12">ZL</text><text text-anchor="start" x="242" y="302" font-size="12">ZR</text></svg>