<svg xmlns="http://www.w3.org/2000/svg" width="464.0" height="340">
<path stroke-width="1" stroke="gray" d="M 370 124 374 209"/>
<path stroke-width="1" stroke="gray" d="M 132 96 46 101"/>
<path stroke-width="1" stroke="gray" d="M 132 96 267 115"/>
<path stroke-width="1" stroke="gray" d="M 69 51 84 29"/>
<path stroke-width="1" stroke="gray" d="M 69 51 46 101"/>
<path stroke-width="1" stroke="gray" d="M 100 138 223 68"/>
<path stroke-width="1" stroke="gray" d="M 100 138 29 180"/>
<path stroke-width="1" stroke="gray" d="M 386 168 380 200"/>
<path stroke-width="1" stroke="gray" d="M 386 168 355 128"/>
<path stroke-width="1" stroke="gray" d="M 192 270 212 216"/>
<path stroke-width="1" stroke="gray" d="M 192 270 202 289"/>
<path stroke-width="1" stroke="gray" d="M 304 307 350 295"/>
<path stroke-width="1" stroke="gray" d="M 304 307 221 320"/>
<path stroke-width="1" stroke="gray" d="M 245 134 164 202"/>
<path stroke-width="1" stroke="gray" d="M 245 134 329 102"/>
<path stroke-width="1" stroke="gray" d="M 202 289 232 243"/>
<path stroke-width="1" stroke="gray" d="M 287 209 164 202"/>
<path stroke-width="1" stroke="gray" d="M 202 289 147 300"/>
<path stroke-width="1" stroke="gray" d="M 287 209 380 200"/>
<path stroke-width="1" stroke="gray" d="M 420 158 380 200"/>
<path stroke-width="1" stroke="gray" d="M 336 305 351 301"/>
<path stroke-width="1" stroke="gray" d="M 168 77 210 47"/>
<path stroke-width="1" stroke="gray" d="M 168 77 60 153"/>
<path stroke-width="1" stroke="gray" d="M 168 77 49 125"/>
<path stroke-width="1" stroke="gray" d="M 168 77 245 51"/>
<path stroke-width="1" stroke="gray" d="M 168 77 306 89"/>
<path stroke-width="1" stroke="gray" d="M 181 60 144 24"/>
<path stroke-width="1" stroke="gray" d="M 181 60 224 154"/>
<path stroke-width="1" stroke="gray" d="M 318 209 212 216"/>
<path stroke-width="1" stroke="gray" d="M 318 209 380 200"/>
<path stroke-width="1" stroke="gray" d="M 99 300 46 236"/>
<path stroke-width="1" stroke="gray" d="M 99 300 52 289"/>
<path stroke-width="1" stroke="gray" d="M 99 300 221 320"/>
<path stroke-width="1" stroke="gray" d="M 267 115 370 124"/>
<path stroke-width="1" stroke="gray" d="M 267 115 132 96"/>
<path stroke-width="1" stroke="gray" d="M 420 158 418 132"/>
<path stroke-width="1" stroke="gray" d="M 127 141 75 96"/>
<path stroke-width="1" stroke="gray" d="M 202 289 192 270"/>
<path stroke-width="1" stroke="gray" d="M 202 289 98 245"/>
<path stroke-width="1" stroke="gray" d="M 163 243 190 244"/>
<path stroke-width="1" stroke="gray" d="M 163 243 164 202"/>
<path stroke-width="1" stroke="gray" d="M 20 251 52 289"/>
<path stroke-width="1" stroke="gray" d="M 20 251 29 180"/>
<path stroke-width="1" stroke="gray" d="M 75 96 46 101"/>
<path stroke-width="1" stroke="gray" d="M 75 96 127 141"/>
<path stroke-width="1" stroke="gray" d="M 38 213 29 180"/>
<path stroke-width="1" stroke="gray" d="M 38 213 139 217"/>
<path stroke-width="1" stroke="gray" d="M 109 20 144 24"/>
<path stroke-width="1" stroke="gray" d="M 109 20 84 29"/>
<path stroke-width="1" stroke="gray" d="M 268 248 352 238"/>
<path stroke-width="1" stroke="gray" d="M 268 248 139 217"/>
<path stroke-width="1" stroke="gray" d="M 278 88 148 127"/>
<path stroke-width="1" stroke="gray" d="M 278 88 332 57"/>
<path stroke-width="1" stroke="gray" d="M 278 88 245 51"/>
<path stroke-width="1" stroke="gray" d="M 209 149 278 88"/>
<path stroke-width="1" stroke="gray" d="M 202 289 311 263"/>
<path stroke-width="1" stroke="gray" d="M 209 149 139 217"/>
<path stroke-width="1" stroke="gray" d="M 40 171 46 101"/>
<path stroke-width="1" stroke="gray" d="M 329 102 370 124"/>
<path stroke-width="1" stroke="gray" d="M 329 102 245 134"/>
<path stroke-width="1" stroke="gray" d="M 311 263 374 209"/>
<path stroke-width="1" stroke="gray" d="M 311 263 202 289"/>
<path stroke-width="1" stroke="gray" d="M 306 89 370 124"/>
<path stroke-width="1" stroke="gray" d="M 306 89 168 77"/>
<path stroke-width="1" stroke="gray" d="M 98 245 202 289"/>
<path stroke-width="1" stroke="gray" d="M 98 245 40 171"/>
<path stroke-width="1" stroke="gray" d="M 71 144 46 101"/>
<path stroke-width="1" stroke="gray" d="M 71 144 164 202"/>
<path stroke-width="1" stroke="gray" d="M 139 217 209 149"/>
<path stroke-width="1" stroke="gray" d="M 139 217 38 213"/>
<path stroke-width="1" stroke="gray" d="M 139 217 268 248"/>
<path stroke-width="1" stroke="gray" d="M 221 320 99 300"/>
<path stroke-width="1" stroke="gray" d="M 221 320 304 307"/>
<path stroke-width="1" stroke="gray" d="M 40 171 98 245"/>
<path stroke-width="1" stroke="gray" d="M 127 141 212 216"/>
<path stroke-width="1" stroke="gray" d="M 224 154 181 60"/>
<path stroke-width="1" stroke="gray" d="M 224 154 232 243"/>
<path stroke-width="1" stroke="gray" d="M 380 200 352 238"/>
<path stroke-width="1" stroke="gray" d="M 380 200 318 209"/>
<path stroke-width="1" stroke="gray" d="M 380 200 420 158"/>
<path stroke-width="1" stroke="gray" d="M 380 200 287 209"/>
<path stroke-width="1" stroke="gray" d="M 380 200 386 168"/>
<path stroke-width="1" stroke="gray" d="M 374 209 370 124"/>
<path stroke-width="1" stroke="gray" d="M 374 209 311 263"/>
<path stroke-width="1" stroke="gray" d="M 418 132 370 124"/>
<path stroke-width="1" stroke="gray" d="M 418 132 420 158"/>
<path stroke-width="1" stroke="gray" d="M 52 289 99 300"/>
<path stroke-width="1" stroke="gray" d="M 52 289 20 251"/>
<path stroke-width="1" stroke="gray" d="M 144 24 181 60"/>
<path stroke-width="1" stroke="gray" d="M 144 24 109 20"/>
<path stroke-width="1" stroke="gray" d="M 332 57 312 53"/>
<path stroke-width="1" stroke="gray" d="M 332 57 278 88"/>
<path stroke-width="1" stroke="gray" d="M 60 153 168 77"/>
<path stroke-width="1" stroke="gray" d="M 49 125 29 180"/>
<path stroke-width="1" stroke="gray" d="M 60 153 46 236"/>
<path stroke-width="1" stroke="gray" d="M 148 127 29 180"/>
<path stroke-width="1" stroke="gray" d="M 370 124 418 132"/>
<path stroke-width="1" stroke="gray" d="M 370 124 267 115"/>
<path stroke-width="1" stroke="gray" d="M 370 124 329 102"/>
<path stroke-width="1" stroke="gray" d="M 370 124 306 89"/>
<path stroke-width="1" stroke="gray" d="M 46 236 60 153"/>
<path stroke-width="1" stroke="gray" d="M 46 236 99 300"/>
<path stroke-width="1" stroke="gray" d="M 212 216 190 244"/>
<path stroke-width="1" stroke="gray" d="M 212 216 127 141"/>
<path stroke-width="1" stroke="gray" d="M 212 216 318 209"/>
<path stroke-width="1" stroke="gray" d="M 212 216 192 270"/>
<path stroke-width="1" stroke="gray" d="M 210 47 223 68"/>
<path stroke-width="1" stroke="gray" d="M 210 47 168 77"/>
<path stroke-width="1" stroke="gray" d="M 223 68 210 47"/>
<path stroke-width="1" stroke="gray" d="M 223 68 312 53"/>
<path stroke-width="1" stroke="gray" d="M 223 68 100 138"/>
<path stroke-width="1" stroke="gray" d="M 148 127 278 88"/>
<path stroke-width="1" stroke="gray" d="M 49 125 168 77"/>
<path stroke-width="1" stroke="gray" d="M 352 238 380 200"/>
<path stroke-width="1" stroke="gray" d="M 352 238 268 248"/>
<path stroke-width="1" stroke="gray" d="M 46 101 69 51"/>
<path stroke-width="1" stroke="gray" d="M 46 101 71 144"/>
<path stroke-width="1" stroke="gray" d="M 46 101 40 171"/>
<path stroke-width="1" stroke="gray" d="M 46 101 75 96"/>
<path stroke-width="1" stroke="gray" d="M 351 301 350 295"/>
<path stroke-width="1" stroke="gray" d="M 351 301 336 305"/>
<path stroke-width="1" stroke="gray" d="M 245 51 168 77"/>
<path stroke-width="1" stroke="gray" d="M 245 51 278 88"/>
<path stroke-width="1" stroke="gray" d="M 164 202 123 270"/>
<path stroke-width="1" stroke="gray" d="M 164 202 287 209"/>
<path stroke-width="1" stroke="gray" d="M 164 202 245 134"/>
<path stroke-width="1" stroke="gray" d="M 164 202 71 144"/>
<path stroke-width="1" stroke="gray" d="M 164 202 163 243"/>
<path stroke-width="1" stroke="gray" d="M 355 128 386 168"/>
<path stroke-width="1" stroke="gray" d="M 355 128 278 88"/>
<path stroke-width="1" stroke="gray" d="M 46 101 132 96"/>
<path stroke-width="1" stroke="gray" d="M 190 244 163 243"/>
<path stroke-width="1" stroke="gray" d="M 190 244 212 216"/>
<path stroke-width="1" stroke="gray" d="M 147 300 202 289"/>
<path stroke-width="1" stroke="gray" d="M 84 29 69 51"/>
<path stroke-width="1" stroke="gray" d="M 84 29 109 20"/>
<path stroke-width="1" stroke="gray" d="M 350 295 351 301"/>
<path stroke-width="1" stroke="gray" d="M 350 295 304 307"/>
<path stroke-width="1" stroke="gray" d="M 29 180 148 127"/>
<path stroke-width="1" stroke="gray" d="M 29 180 49 125"/>
<path stroke-width="1" stroke="gray" d="M 29 180 100 138"/>
<path stroke-width="1" stroke="gray" d="M 278 88 355 128"/>
<path stroke-width="1" stroke="gray" d="M 29 180 20 251"/>
<path stroke-width="1" stroke="gray" d="M 232 243 224 154"/>
<path stroke-width="1" stroke="gray" d="M 232 243 202 289"/>
<path stroke-width="1" stroke="gray" d="M 123 270 147 300"/>
<path stroke-width="1" stroke="gray" d="M 123 270 164 202"/>
<path stroke-width="1" stroke="gray" d="M 312 53 223 68"/>
<path stroke-width="1" stroke="gray" d="M 312 53 332 57"/>
<path stroke-width="1" stroke="gray" d="M 147 300 123 270"/>
<path stroke-width="1" stroke="gray" d="M 29 180 38 213"/>
<path stroke-width="1" stroke="gray" d="M 278 88 209 149"/>
<circle cx="370" cy="124" r="7.0" style="fill:gray;stroke:black;stroke-width:1.0"/>
<circle cx="46" cy="236" r="7.0" style="fill:gray;stroke:black;stroke-width:1.0"/>
<circle cx="212" cy="216" r="7.0" style="fill:gray;stroke:black;stroke-width:1.0"/>
<circle cx="210" cy="47" r="7.0" style="fill:gray;stroke:black;stroke-width:1.0"/>
<circle cx="223" cy="68" r="7.0" style="fill:gray;stroke:black;stroke-width:1.0"/>
<circle cx="148" cy="127" r="7.0" style="fill:gray;stroke:black;stroke-width:1.0"/>
<circle cx="60" cy="153" r="7.0" style="fill:gray;stroke:black;stroke-width:1.0"/>
<circle cx="380" cy="200" r="7.0" style="fill:gray;stroke:black;stroke-width:1.0"/>
<circle cx="374" cy="209" r="7.0" style="fill:gray;stroke:black;stroke-width:1.0"/>
<circle cx="418" cy="132" r="7.0" style="fill:gray;stroke:black;stroke-width:1.0"/>
<circle cx="52" cy="289" r="7.0" style="fill:gray;stroke:black;stroke-width:1.0"/>
<circle cx="144" cy="24" r="7.0" style="fill:gray;stroke:black;stroke-width:1.0"/>
<circle cx="332" cy="57" r="7.0" style="fill:gray;stroke:black;stroke-width:1.0"/>
<circle cx="49" cy="125" r="7.0" style="fill:gray;stroke:black;stroke-width:1.0"/>
<circle cx="352" cy="238" r="7.0" style="fill:gray;stroke:black;stroke-width:1.0"/>
<circle cx="84" cy="29" r="7.0" style="fill:gray;stroke:black;stroke-width:1.0"/>
<circle cx="350" cy="295" r="7.0" style="fill:gray;stroke:black;stroke-width:1.0"/>
<circle cx="29" cy="180" r="7.0" style="fill:gray;stroke:black;stroke-width:1.0"/>
<circle cx="232" cy="243" r="7.0" style="fill:gray;stroke:black;stroke-width:1.0"/>
<circle cx="123" cy="270" r="7.0" style="fill:gray;stroke:black;stroke-width:1.0"/>
<circle cx="312" cy="53" r="7.0" style="fill:gray;stroke:black;stroke-width:1.0"/>
<circle cx="147" cy="300" r="7.0" style="fill:gray;stroke:black;stroke-width:1.0"/>
<circle cx="190" cy="244" r="7.0" style="fill:gray;stroke:black;stroke-width:1.0"/>
<circle cx="46" cy="101" r="7.0" style="fill:gray;stroke:black;stroke-width:1.0"/>
<circle cx="351" cy="301" r="7.0" style="fill:gray;stroke:black;stroke-width:1.0"/>
<circle cx="245" cy="51" r="7.0" style="fill:gray;stroke:black;stroke-width:1.0"/>
<circle cx="164" cy="202" r="7.0" style="fill:gray;stroke:black;stroke-width:1.0"/>
<circle cx="355" cy="128" r="7.0" style="fill:gray;stroke:black;stroke-width:1.0"/>
<circle cx="224" cy="154" r="7.0" style="fill:gray;stroke:black;stroke-width:1.0"/>
<circle cx="127" cy="141" r="7.0" style="fill:gray;stroke:black;stroke-width:1.0"/>
<circle cx="336" cy="305" r="7.0" style="fill:gray;stroke:black;stroke-width:1.0"/>
<circle cx="168" cy="77" r="7.0" style="fill:gray;stroke:black;stroke-width:1.0"/>
<circle cx="181" cy="60" r="7.0" style="fill:gray;stroke:black;stroke-width:1.0"/>
<circle cx="318" cy="209" r="7.0" style="fill:gray;stroke:black;stroke-width:1.0"/>
<circle cx="99" cy="300" r="7.0" style="fill:gray;stroke:black;stroke-width:1.0"/>
<circle cx="267" cy="115" r="7.0" style="fill:gray;stroke:black;stroke-width:1.0"/>
<circle cx="420" cy="158" r="7.0" style="fill:gray;stroke:black;stroke-width:1.0"/>
<circle cx="287" cy="209" r="7.0" style="fill:gray;stroke:black;stroke-width:1.0"/>
<circle cx="132" cy="96" r="7.0" style="fill:gray;stroke:black;stroke-width:1.0"/>
<circle cx="69" cy="51" r="7.0" style="fill:gray;stroke:black;stroke-width:1.0"/>
<circle cx="100" cy="138" r="7.0" style="fill:gray;stroke:black;stroke-width:1.0"/>
<circle cx="386" cy="168" r="7.0" style="fill:gray;stroke:black;stroke-width:1.0"/>
<circle cx="192" cy="270" r="7.0" style="fill:gray;stroke:black;stroke-width:1.0"/>
<circle cx="304" cy="307" r="7.0" style="fill:gray;stroke:black;stroke-width:1.0"/>
<circle cx="245" cy="134" r="7.0" style="fill:gray;stroke:black;stroke-width:1.0"/>
<circle cx="202" cy="289" r="7.0" style="fill:gray;stroke:black;stroke-width:1.0"/>
<circle cx="329" cy="102" r="7.0" style="fill:gray;stroke:black;stroke-width:1.0"/>
<circle cx="311" cy="263" r="7.0" style="fill:gray;stroke:black;stroke-width:1.0"/>
<circle cx="306" cy="89" r="7.0" style="fill:gray;stroke:black;stroke-width:1.0"/>
<circle cx="98" cy="245" r="7.0" style="fill:gray;stroke:black;stroke-width:1.0"/>
<circle cx="71" cy="144" r="7.0" style="fill:gray;stroke:black;stroke-width:1.0"/>
<circle cx="139" cy="217" r="7.0" style="fill:gray;stroke:black;stroke-width:1.0"/>
<circle cx="221" cy="320" r="7.0" style="fill:gray;stroke:black;stroke-width:1.0"/>
<circle cx="40" cy="171" r="7.0" style="fill:gray;stroke:black;stroke-width:1.0"/>
<circle cx="209" cy="149" r="7.0" style="fill:gray;stroke:black;stroke-width:1.0"/>
<circle cx="163" cy="243" r="7.0" style="fill:gray;stroke:black;stroke-width:1.0"/>
<circle cx="20" cy="251" r="7.0" style="fill:gray;stroke:black;stroke-width:1.0"/>
<circle cx="75" cy="96" r="7.0" style="fill:gray;stroke:black;stroke-width:1.0"/>
<circle cx="38" cy="213" r="7.0" style="fill:gray;stroke:black;stroke-width:1.0"/>
<circle cx="109" cy="20" r="7.0" style="fill:gray;stroke:black;stroke-width:1.0"/>
<circle cx="268" cy="248" r="7.0" style="fill:gray;stroke:black;stroke-width:1.0"/>
<circle cx="278" cy="88" r="7.0" style="fill:gray;stroke:black;stroke-width:1.0"/>
<text text-anchor="start" x="380" y="124" font-size="12">AA</text><text text-anchor="start" x="56" y="236" font-size="12">AD</text><text text-anchor="start" x="222" y="216" font-size="12">AJ</text><text text-anchor="start" x="220" y="47" font-size="12">AV</text><text text-anchor="start" x="233" y="68" font-size="12">AX</text><text text-anchor="start" x="158" y="127" font-size="12">AZ</text><text text-anchor="start" x="70" y="153" font-size="12">BK</text><text text-anchor="start" x="390" y="200" font-size="12">CG</text><text text-anchor="start" x="384" y="209" font-size="12">DZ</text><text text-anchor="start" x="428" y="132" font-size="12">EI</text><text text-anchor="start" x="62" y="289" font-size="12">EQ</text><text text-anchor="start" x="154" y="24" font-size="12">ER</text><text text-anchor="start" x="342" y="57" font-size="12">ET</text><text text-anchor="start" x="59" y="125" font-size="12">EU</text><text text-anchor="start" x="362" y="238" font-size="12">FF</text><text text-anchor="start" x="94" y="29" font-size="12">FR</text><text text-anchor="start" x="360" y="295" font-size="12">FV</text><text text-anchor="start" x="39" y="180" font-size="12">GJ</text><text text-anchor="start" x="242" y="243" font-size="12">GQ</text><text text-anchor="start" x="133" y="270" font-size="12">HF</text><text text-anchor="start" x="322" y="53" font-size="12">HP</text><text text-anchor="start" x="157" y="300" font-size="12">JI</text><text text-anchor="start" x="200" y="244" font-size="12">JW</text><text text-anchor="start" x="56" y="101" font-size="12">KU</text><text text-anchor="start" x="361" y="301" font-size="12">KV</text><text text-anchor="start" x="255" y="51" font-size="12">KX</text><text text-anchor="start" x="174" y="202" font-size="12">LM</text><text text-anchor="start" x="365" y="128" font-size="12">LN</text><text text-anchor="start" x="234" y="154" font-size="12">MF</text><text text-anchor="start" x="137" y="141" font-size="12">MK</text><text text-anchor="start" x="346" y="305" font-size="12">OF</text><text text-anchor="start" x="178" y="77" font-size="12">PI</text><text text-anchor="start" x="191" y="60" font-size="12">QO</text><text text-anchor="start" x="328" y="209" font-size="12">QX</text><text text-anchor="start" x="109" y="300" font-size="12">RC</text><text text-anchor="start" x="277" y="115" font-size="12">RO</text><text text-anchor="start" x="430" y="158" font-size="12">RV</text><text text-anchor="start" x="297" y="209" font-size="12">SU</text><text text-anchor="start" x="142" y="96" font-size="12">TC</text><text text-anchor="start" x="79" y="51" font-size="12">TF</text><text text-anchor="start" x="110" y="138" font-size="12">TG</text><text text-anchor="start" x="396" y="168" font-size="12">TI</text><text text-anchor="start" x="202" y="270" font-size="12">TR</text><text text-anchor="start" x="314" y="307" font-size="12">TX</text><text text-anchor="start" x="255" y="134" font-size="12">UJ</text><text text-anchor="start" x="212" y="289" font-size="12">VD</text><text text-anchor="start" x="339" y="102" font-size="12">VJ</text><text text-anchor="start" x="321" y="263" font-size="12">VO</text><text text-anchor="start" x="316" y="89" font-size="12">VQ</text><text text-anchor="start" x="108" y="245" font-size="12">VS</text><text text-anchor="start" x="81" y="144" font-size="12">VY</text><text text-anchor="start" x="149" y="217" font-size="12">WI</text><text text-anchor="start" x="231" y="320" font-size="12">WR</text><text text-anchor="start" x="50" y="171" font-size="12">XL</text><text text-anchor="start" x="219" y="149" font-size="12">XO</text><text text-anchor="start" x="173" y="243" font-size="12">YI</text><text text-anchor="start" x="30" y="251" font-size="12">YJ</text><text text-anchor="start" x="85" y="96" font-size="12">YW</text><text text-anchor="start" x="48" y="213" font-size="12">ZJ</text><text text-anchor="start" x="119" y="20" font-size="12">ZK</text><text text-anchor="start" x="278" y="248" font-size="12">ZL</text><text text-anchor="start" x="288" y="88" font-size="12">ZR</text></svg>